<svg width="301" height="71" viewBox="0 0 301 71" fill="none" xmlns="http://www.w3.org/2000/svg">
<path d="M23 0.5L23 45.5H4.37114e-07L2.40413e-06 0.5H23Z" fill="white"/>
<path d="M33 0.5L33 55.5H0L2.40413e-06 70.5H48V0.5H33Z" fill="white"/>
<path d="M65.5432 33.14V32.51C66.3032 32.43 66.9532 32.2 67.4932 31.82C68.0532 31.44 68.4832 30.78 68.7832 29.84C69.0832 28.9 69.2332 27.58 69.2332 25.88V9.44C69.2332 8.7 69.1732 8.16 69.0532 7.82C68.9532 7.46 68.7432 7.22 68.4232 7.1C68.1032 6.96 67.6432 6.88 67.0432 6.86V6.26C67.5432 6.28 68.2232 6.3 69.0832 6.32C69.9432 6.34 70.8432 6.35 71.7832 6.35C72.7432 6.35 73.6732 6.34 74.5732 6.32C75.4932 6.3 76.2532 6.28 76.8532 6.26V6.86C76.2332 6.88 75.7632 6.96 75.4432 7.1C75.1232 7.22 74.9132 7.46 74.8132 7.82C74.7132 8.16 74.6632 8.7 74.6632 9.44V20.42C74.6632 21.24 74.6632 22.13 74.6632 23.09C74.6632 24.03 74.6232 24.95 74.5432 25.85C74.4832 26.75 74.3532 27.55 74.1532 28.25C73.7332 29.63 72.8132 30.79 71.3932 31.73C69.9732 32.67 68.0232 33.14 65.5432 33.14Z" fill="white"/>
<path d="M93.1823 11.63V24.23C93.1823 25.13 93.3123 25.8 93.5723 26.24C93.8523 26.66 94.3223 26.87 94.9823 26.87V27.5C94.3623 27.44 93.7423 27.41 93.1223 27.41C92.2023 27.41 91.3423 27.44 90.5423 27.5C89.7623 27.56 89.0223 27.67 88.3223 27.83V25.4C87.8423 26.3 87.1823 26.95 86.3423 27.35C85.5223 27.73 84.5823 27.92 83.5223 27.92C82.6423 27.92 81.9323 27.81 81.3923 27.59C80.8723 27.37 80.4723 27.08 80.1923 26.72C79.8723 26.36 79.6423 25.88 79.5023 25.28C79.3623 24.66 79.2923 23.85 79.2923 22.85V15.23C79.2923 14.33 79.1623 13.67 78.9023 13.25C78.6423 12.81 78.1723 12.59 77.4923 12.59V11.96C78.1323 12.02 78.7523 12.05 79.3523 12.05C80.2723 12.05 81.1323 12.02 81.9323 11.96C82.7323 11.88 83.4723 11.77 84.1523 11.63V24.29C84.1523 24.75 84.2023 25.14 84.3023 25.46C84.4023 25.78 84.5723 26.03 84.8123 26.21C85.0523 26.39 85.3723 26.48 85.7723 26.48C86.4723 26.48 87.0723 26.21 87.5723 25.67C88.0723 25.13 88.3223 24.46 88.3223 23.66V15.23C88.3223 14.33 88.1923 13.67 87.9323 13.25C87.6723 12.81 87.2023 12.59 86.5223 12.59V11.96C87.1623 12.02 87.7823 12.05 88.3823 12.05C89.3023 12.05 90.1623 12.02 90.9623 11.96C91.7623 11.88 92.5023 11.77 93.1823 11.63Z" fill="white"/>
<path d="M107.74 11.54C108.62 11.54 109.32 11.65 109.84 11.87C110.38 12.09 110.79 12.37 111.07 12.71C111.39 13.09 111.62 13.58 111.76 14.18C111.92 14.78 112 15.59 112 16.61V24.71C112 25.55 112.13 26.12 112.39 26.42C112.67 26.72 113.14 26.87 113.8 26.87V27.5C113.4 27.48 112.8 27.46 112 27.44C111.22 27.4 110.46 27.38 109.72 27.38C108.9 27.38 108.11 27.4 107.35 27.44C106.59 27.46 106.02 27.48 105.64 27.5V26.87C106.2 26.87 106.59 26.72 106.81 26.42C107.03 26.12 107.14 25.55 107.14 24.71V15.17C107.14 14.71 107.09 14.32 106.99 14C106.89 13.66 106.72 13.41 106.48 13.25C106.24 13.07 105.9 12.98 105.46 12.98C104.76 12.98 104.16 13.25 103.66 13.79C103.16 14.31 102.91 14.98 102.91 15.8V24.71C102.91 25.55 103.02 26.12 103.24 26.42C103.46 26.72 103.85 26.87 104.41 26.87V27.5C104.03 27.48 103.48 27.46 102.76 27.44C102.04 27.4 101.31 27.38 100.57 27.38C99.7501 27.38 98.9301 27.4 98.1101 27.44C97.2901 27.46 96.6701 27.48 96.2501 27.5V26.87C96.9101 26.87 97.3701 26.72 97.6301 26.42C97.9101 26.12 98.0501 25.55 98.0501 24.71V15.23C98.0501 14.33 97.9201 13.67 97.6601 13.25C97.4001 12.81 96.9301 12.59 96.2501 12.59V11.96C96.8901 12.02 97.5101 12.05 98.1101 12.05C99.0101 12.05 99.8601 12.02 100.66 11.96C101.48 11.88 102.23 11.77 102.91 11.63V14.06C103.39 13.14 104.04 12.49 104.86 12.11C105.7 11.73 106.66 11.54 107.74 11.54Z" fill="white"/>
<path d="M122.684 11.54C123.524 11.54 124.274 11.63 124.934 11.81C125.594 11.97 126.134 12.18 126.554 12.44C127.074 12.76 127.494 13.17 127.814 13.67C128.134 14.17 128.294 14.75 128.294 15.41C128.294 16.17 128.044 16.81 127.544 17.33C127.044 17.83 126.414 18.08 125.654 18.08C124.874 18.08 124.254 17.85 123.794 17.39C123.354 16.93 123.134 16.34 123.134 15.62C123.134 14.92 123.354 14.33 123.794 13.85C124.234 13.37 124.754 13.05 125.354 12.89C125.194 12.73 124.984 12.6 124.724 12.5C124.484 12.4 124.194 12.35 123.854 12.35C123.174 12.35 122.604 12.55 122.144 12.95C121.684 13.33 121.304 13.86 121.004 14.54C120.724 15.2 120.514 15.95 120.374 16.79C120.254 17.61 120.194 18.46 120.194 19.34C120.194 20.82 120.384 21.98 120.764 22.82C121.164 23.64 121.654 24.22 122.234 24.56C122.834 24.88 123.444 25.04 124.064 25.04C124.544 25.04 125.134 24.91 125.834 24.65C126.534 24.39 127.204 23.78 127.844 22.82L128.354 23C128.134 23.78 127.764 24.55 127.244 25.31C126.724 26.07 126.054 26.7 125.234 27.2C124.414 27.68 123.414 27.92 122.234 27.92C120.914 27.92 119.714 27.65 118.634 27.11C117.574 26.57 116.724 25.7 116.084 24.5C115.444 23.3 115.124 21.73 115.124 19.79C115.124 17.91 115.454 16.37 116.114 15.17C116.774 13.95 117.674 13.04 118.814 12.44C119.974 11.84 121.264 11.54 122.684 11.54Z" fill="white"/>
<path d="M136.334 7.07V11.96H139.574V12.56H136.334V24.83C136.334 25.33 136.424 25.69 136.604 25.91C136.784 26.11 137.054 26.21 137.414 26.21C137.714 26.21 138.024 26.11 138.344 25.91C138.684 25.71 138.994 25.37 139.274 24.89L139.754 25.19C139.374 26.01 138.844 26.67 138.164 27.17C137.504 27.67 136.634 27.92 135.554 27.92C134.894 27.92 134.304 27.83 133.784 27.65C133.284 27.49 132.864 27.24 132.524 26.9C132.084 26.46 131.794 25.92 131.654 25.28C131.534 24.62 131.474 23.77 131.474 22.73V12.56H129.074V11.96H131.474V8.21C132.414 8.21 133.274 8.12 134.054 7.94C134.854 7.76 135.614 7.47 136.334 7.07Z" fill="white"/>
<path d="M155.702 11.63V24.23C155.702 25.13 155.832 25.8 156.092 26.24C156.372 26.66 156.842 26.87 157.502 26.87V27.5C156.882 27.44 156.262 27.41 155.642 27.41C154.722 27.41 153.862 27.44 153.062 27.5C152.282 27.56 151.542 27.67 150.842 27.83V25.4C150.362 26.3 149.702 26.95 148.862 27.35C148.042 27.73 147.102 27.92 146.042 27.92C145.162 27.92 144.452 27.81 143.912 27.59C143.392 27.37 142.992 27.08 142.712 26.72C142.392 26.36 142.162 25.88 142.022 25.28C141.882 24.66 141.812 23.85 141.812 22.85V15.23C141.812 14.33 141.682 13.67 141.422 13.25C141.162 12.81 140.692 12.59 140.012 12.59V11.96C140.652 12.02 141.272 12.05 141.872 12.05C142.792 12.05 143.652 12.02 144.452 11.96C145.252 11.88 145.992 11.77 146.672 11.63V24.29C146.672 24.75 146.722 25.14 146.822 25.46C146.922 25.78 147.092 26.03 147.332 26.21C147.572 26.39 147.892 26.48 148.292 26.48C148.992 26.48 149.592 26.21 150.092 25.67C150.592 25.13 150.842 24.46 150.842 23.66V15.23C150.842 14.33 150.712 13.67 150.452 13.25C150.192 12.81 149.722 12.59 149.042 12.59V11.96C149.682 12.02 150.302 12.05 150.902 12.05C151.822 12.05 152.682 12.02 153.482 11.96C154.282 11.88 155.022 11.77 155.702 11.63Z" fill="white"/>
<path d="M169.39 11.54C170.07 11.54 170.61 11.69 171.01 11.99C171.41 12.27 171.7 12.64 171.88 13.1C172.06 13.54 172.15 13.98 172.15 14.42C172.15 15.24 171.91 15.9 171.43 16.4C170.97 16.9 170.36 17.15 169.6 17.15C168.8 17.15 168.19 16.97 167.77 16.61C167.35 16.23 167.14 15.73 167.14 15.11C167.14 14.49 167.27 13.98 167.53 13.58C167.81 13.18 168.15 12.84 168.55 12.56C168.25 12.52 167.96 12.56 167.68 12.68C167.24 12.78 166.85 13.01 166.51 13.37C166.17 13.71 165.9 14.11 165.7 14.57C165.52 15.01 165.43 15.47 165.43 15.95V24.41C165.43 25.37 165.64 26.02 166.06 26.36C166.5 26.7 167.19 26.87 168.13 26.87V27.5C167.67 27.48 166.99 27.46 166.09 27.44C165.19 27.4 164.26 27.38 163.3 27.38C162.44 27.38 161.57 27.4 160.69 27.44C159.83 27.46 159.19 27.48 158.77 27.5V26.87C159.43 26.87 159.89 26.72 160.15 26.42C160.43 26.12 160.57 25.55 160.57 24.71V15.23C160.57 14.33 160.44 13.67 160.18 13.25C159.92 12.81 159.45 12.59 158.77 12.59V11.96C159.41 12.02 160.03 12.05 160.63 12.05C161.53 12.05 162.38 12.02 163.18 11.96C164 11.88 164.75 11.77 165.43 11.63V14.09C165.67 13.57 165.98 13.12 166.36 12.74C166.76 12.36 167.21 12.07 167.71 11.87C168.23 11.65 168.79 11.54 169.39 11.54Z" fill="white"/>
<path d="M180.487 11.54C182.247 11.54 183.627 12.06 184.627 13.1C185.627 14.14 186.127 15.85 186.127 18.23H176.497L176.467 17.66H182.047C182.087 16.68 182.047 15.78 181.927 14.96C181.807 14.12 181.607 13.45 181.327 12.95C181.067 12.45 180.717 12.2 180.277 12.2C179.677 12.2 179.167 12.63 178.747 13.49C178.327 14.35 178.067 15.81 177.967 17.87L178.087 18.08C178.047 18.3 178.027 18.53 178.027 18.77C178.027 18.99 178.027 19.23 178.027 19.49C178.027 20.87 178.207 21.97 178.567 22.79C178.947 23.61 179.417 24.19 179.977 24.53C180.537 24.87 181.117 25.04 181.717 25.04C182.217 25.04 182.807 24.92 183.487 24.68C184.187 24.42 184.857 23.81 185.497 22.85L186.007 23.03C185.787 23.81 185.407 24.58 184.867 25.34C184.347 26.08 183.677 26.7 182.857 27.2C182.037 27.68 181.047 27.92 179.887 27.92C178.567 27.92 177.387 27.65 176.347 27.11C175.307 26.55 174.477 25.68 173.857 24.5C173.257 23.3 172.957 21.74 172.957 19.82C172.957 17.92 173.287 16.36 173.947 15.14C174.607 13.92 175.507 13.02 176.647 12.44C177.787 11.84 179.067 11.54 180.487 11.54Z" fill="white"/>
<path d="M69.6626 49.6973C68.6978 49.4199 67.9946 49.0801 67.5532 48.6777C67.1157 48.2715 66.897 47.7715 66.897 47.1777C66.897 46.5059 67.1646 45.9512 67.6997 45.5137C68.2388 45.0723 68.938 44.8516 69.7974 44.8516C70.3833 44.8516 70.9048 44.9648 71.3618 45.1914C71.8228 45.418 72.1782 45.7305 72.4282 46.1289C72.6821 46.5273 72.8091 46.9629 72.8091 47.4355H71.6782C71.6782 46.9199 71.5142 46.5156 71.186 46.2227C70.8579 45.9258 70.395 45.7773 69.7974 45.7773C69.2427 45.7773 68.8091 45.9004 68.4966 46.1465C68.188 46.3887 68.0337 46.7266 68.0337 47.1602C68.0337 47.5078 68.1802 47.8027 68.4731 48.0449C68.77 48.2832 69.272 48.502 69.979 48.7012C70.6899 48.9004 71.2446 49.1211 71.6431 49.3633C72.0454 49.6016 72.3423 49.8809 72.5337 50.2012C72.729 50.5215 72.8267 50.8984 72.8267 51.332C72.8267 52.0234 72.5571 52.5781 72.0181 52.9961C71.479 53.4102 70.7583 53.6172 69.856 53.6172C69.27 53.6172 68.7231 53.5059 68.2153 53.2832C67.7075 53.0566 67.3149 52.748 67.0376 52.3574C66.7642 51.9668 66.6274 51.5234 66.6274 51.0273H67.7583C67.7583 51.543 67.9478 51.9512 68.3267 52.252C68.7095 52.5488 69.2192 52.6973 69.856 52.6973C70.4497 52.6973 70.9048 52.5762 71.2212 52.334C71.5376 52.0918 71.6958 51.7617 71.6958 51.3438C71.6958 50.9258 71.5493 50.6035 71.2563 50.377C70.9634 50.1465 70.4321 49.9199 69.6626 49.6973Z" fill="white"/>
<path d="M76.7349 53.6172C75.8755 53.6172 75.1763 53.3359 74.6372 52.7734C74.0981 52.207 73.8286 51.4512 73.8286 50.5059V50.3066C73.8286 49.6777 73.9478 49.1172 74.186 48.625C74.4282 48.1289 74.7642 47.7422 75.1938 47.4648C75.6274 47.1836 76.0962 47.043 76.6001 47.043C77.4243 47.043 78.0649 47.3145 78.522 47.8574C78.979 48.4004 79.2075 49.1777 79.2075 50.1895V50.6406H74.9126C74.9282 51.2656 75.1099 51.7715 75.4575 52.1582C75.8091 52.541 76.2544 52.7324 76.7935 52.7324C77.1763 52.7324 77.5005 52.6543 77.7661 52.498C78.0317 52.3418 78.2642 52.1348 78.4634 51.877L79.1255 52.3926C78.5942 53.209 77.7974 53.6172 76.7349 53.6172ZM76.6001 47.9336C76.1626 47.9336 75.7954 48.0938 75.4985 48.4141C75.2017 48.7305 75.0181 49.1758 74.9478 49.75H78.1235V49.668C78.0923 49.1172 77.9438 48.6914 77.6782 48.3906C77.4126 48.0859 77.0532 47.9336 76.6001 47.9336Z" fill="white"/>
<path d="M83.5317 48.1328C83.3677 48.1055 83.1899 48.0918 82.9985 48.0918C82.2876 48.0918 81.8052 48.3945 81.5513 49V53.5H80.4673V47.1602H81.522L81.5396 47.8926C81.895 47.3262 82.3989 47.043 83.0513 47.043C83.2622 47.043 83.4224 47.0703 83.5317 47.125V48.1328Z" fill="white"/>
<path d="M86.731 52.0293L88.3013 47.1602H89.4087L87.1353 53.5H86.3091L84.0122 47.1602H85.1196L86.731 52.0293Z" fill="white"/>
<path d="M91.6294 53.5H90.5454V47.1602H91.6294V53.5ZM90.4575 45.4785C90.4575 45.3027 90.5103 45.1543 90.6157 45.0332C90.7251 44.9121 90.8853 44.8516 91.0962 44.8516C91.3071 44.8516 91.4673 44.9121 91.5767 45.0332C91.686 45.1543 91.7407 45.3027 91.7407 45.4785C91.7407 45.6543 91.686 45.8008 91.5767 45.918C91.4673 46.0352 91.3071 46.0938 91.0962 46.0938C90.8853 46.0938 90.7251 46.0352 90.6157 45.918C90.5103 45.8008 90.4575 45.6543 90.4575 45.4785Z" fill="white"/>
<path d="M95.9126 52.7324C96.2993 52.7324 96.6372 52.6152 96.9263 52.3809C97.2153 52.1465 97.3755 51.8535 97.4067 51.502H98.4321C98.4126 51.8652 98.2876 52.2109 98.0571 52.5391C97.8267 52.8672 97.5181 53.1289 97.1313 53.3242C96.7485 53.5195 96.3423 53.6172 95.9126 53.6172C95.0493 53.6172 94.3618 53.3301 93.8501 52.7559C93.3423 52.1777 93.0884 51.3887 93.0884 50.3887V50.207C93.0884 49.5898 93.2017 49.041 93.4282 48.5605C93.6548 48.0801 93.979 47.707 94.4009 47.4414C94.8267 47.1758 95.3286 47.043 95.9067 47.043C96.6177 47.043 97.2075 47.2559 97.6763 47.6816C98.1489 48.1074 98.4009 48.6602 98.4321 49.3398H97.4067C97.3755 48.9297 97.2192 48.5938 96.938 48.332C96.6606 48.0664 96.3169 47.9336 95.9067 47.9336C95.356 47.9336 94.9282 48.1328 94.6235 48.5312C94.3228 48.9258 94.1724 49.498 94.1724 50.248V50.4531C94.1724 51.1836 94.3228 51.7461 94.6235 52.1406C94.9243 52.5352 95.354 52.7324 95.9126 52.7324Z" fill="white"/>
<path d="M102.282 53.6172C101.422 53.6172 100.723 53.3359 100.184 52.7734C99.645 52.207 99.3755 51.4512 99.3755 50.5059V50.3066C99.3755 49.6777 99.4946 49.1172 99.7329 48.625C99.9751 48.1289 100.311 47.7422 100.741 47.4648C101.174 47.1836 101.643 47.043 102.147 47.043C102.971 47.043 103.612 47.3145 104.069 47.8574C104.526 48.4004 104.754 49.1777 104.754 50.1895V50.6406H100.459C100.475 51.2656 100.657 51.7715 101.004 52.1582C101.356 52.541 101.801 52.7324 102.34 52.7324C102.723 52.7324 103.047 52.6543 103.313 52.498C103.579 52.3418 103.811 52.1348 104.01 51.877L104.672 52.3926C104.141 53.209 103.344 53.6172 102.282 53.6172ZM102.147 47.9336C101.709 47.9336 101.342 48.0938 101.045 48.4141C100.749 48.7305 100.565 49.1758 100.495 49.75H103.67V49.668C103.639 49.1172 103.491 48.6914 103.225 48.3906C102.959 48.0859 102.6 47.9336 102.147 47.9336Z" fill="white"/>
<path d="M109.706 51.8184C109.706 51.5254 109.594 51.2988 109.372 51.1387C109.153 50.9746 108.768 50.834 108.217 50.7168C107.67 50.5996 107.235 50.459 106.911 50.2949C106.59 50.1309 106.352 49.9355 106.196 49.709C106.043 49.4824 105.967 49.2129 105.967 48.9004C105.967 48.3809 106.186 47.9414 106.624 47.582C107.065 47.2227 107.627 47.043 108.311 47.043C109.03 47.043 109.612 47.2285 110.057 47.5996C110.506 47.9707 110.731 48.4453 110.731 49.0234H109.641C109.641 48.7266 109.514 48.4707 109.26 48.2559C109.01 48.041 108.694 47.9336 108.311 47.9336C107.917 47.9336 107.608 48.0195 107.385 48.1914C107.163 48.3633 107.051 48.5879 107.051 48.8652C107.051 49.127 107.155 49.3242 107.362 49.457C107.569 49.5898 107.942 49.7168 108.481 49.8379C109.024 49.959 109.463 50.1035 109.799 50.2715C110.135 50.4395 110.383 50.6426 110.543 50.8809C110.708 51.1152 110.79 51.4023 110.79 51.7422C110.79 52.3086 110.563 52.7637 110.11 53.1074C109.657 53.4473 109.069 53.6172 108.346 53.6172C107.838 53.6172 107.389 53.5273 106.999 53.3477C106.608 53.168 106.301 52.918 106.079 52.5977C105.86 52.2734 105.75 51.9238 105.75 51.5488H106.834C106.854 51.9121 106.999 52.2012 107.268 52.416C107.542 52.627 107.901 52.7324 108.346 52.7324C108.756 52.7324 109.084 52.6504 109.331 52.4863C109.581 52.3184 109.706 52.0957 109.706 51.8184Z" fill="white"/>
<path d="M115.711 53.5V47.998H114.709V47.1602H115.711V46.5098C115.711 45.8301 115.893 45.3047 116.256 44.9336C116.62 44.5625 117.133 44.377 117.797 44.377C118.047 44.377 118.295 44.4102 118.542 44.4766L118.483 45.3555C118.299 45.3203 118.104 45.3027 117.897 45.3027C117.545 45.3027 117.274 45.4062 117.083 45.6133C116.891 45.8164 116.795 46.1094 116.795 46.4922V47.1602H118.149V47.998H116.795V53.5H115.711Z" fill="white"/>
<path d="M119.063 50.2715C119.063 49.6504 119.184 49.0918 119.426 48.5957C119.672 48.0996 120.012 47.7168 120.446 47.4473C120.883 47.1777 121.381 47.043 121.94 47.043C122.803 47.043 123.5 47.3418 124.032 47.9395C124.567 48.5371 124.834 49.332 124.834 50.3242V50.4004C124.834 51.0176 124.715 51.5723 124.477 52.0645C124.243 52.5527 123.905 52.9336 123.463 53.207C123.026 53.4805 122.522 53.6172 121.952 53.6172C121.092 53.6172 120.395 53.3184 119.86 52.7207C119.329 52.123 119.063 51.332 119.063 50.3477V50.2715ZM120.153 50.4004C120.153 51.1035 120.315 51.668 120.639 52.0938C120.967 52.5195 121.405 52.7324 121.952 52.7324C122.502 52.7324 122.94 52.5176 123.264 52.0879C123.588 51.6543 123.75 51.0488 123.75 50.2715C123.75 49.5762 123.584 49.0137 123.252 48.584C122.924 48.1504 122.487 47.9336 121.94 47.9336C121.405 47.9336 120.973 48.1465 120.645 48.5723C120.317 48.998 120.153 49.6074 120.153 50.4004Z" fill="white"/>
<path d="M129.258 48.1328C129.094 48.1055 128.917 48.0918 128.725 48.0918C128.014 48.0918 127.532 48.3945 127.278 49V53.5H126.194V47.1602H127.249L127.266 47.8926C127.622 47.3262 128.125 47.043 128.778 47.043C128.989 47.043 129.149 47.0703 129.258 47.125V48.1328Z" fill="white"/>
<path d="M135.78 52.7324C136.167 52.7324 136.504 52.6152 136.793 52.3809C137.083 52.1465 137.243 51.8535 137.274 51.502H138.299C138.28 51.8652 138.155 52.2109 137.924 52.5391C137.694 52.8672 137.385 53.1289 136.999 53.3242C136.616 53.5195 136.209 53.6172 135.78 53.6172C134.917 53.6172 134.229 53.3301 133.717 52.7559C133.209 52.1777 132.956 51.3887 132.956 50.3887V50.207C132.956 49.5898 133.069 49.041 133.295 48.5605C133.522 48.0801 133.846 47.707 134.268 47.4414C134.694 47.1758 135.196 47.043 135.774 47.043C136.485 47.043 137.075 47.2559 137.543 47.6816C138.016 48.1074 138.268 48.6602 138.299 49.3398H137.274C137.243 48.9297 137.086 48.5938 136.805 48.332C136.528 48.0664 136.184 47.9336 135.774 47.9336C135.223 47.9336 134.795 48.1328 134.491 48.5312C134.19 48.9258 134.04 49.498 134.04 50.248V50.4531C134.04 51.1836 134.19 51.7461 134.491 52.1406C134.792 52.5352 135.221 52.7324 135.78 52.7324Z" fill="white"/>
<path d="M142.583 48.1328C142.418 48.1055 142.241 48.0918 142.049 48.0918C141.338 48.0918 140.856 48.3945 140.602 49V53.5H139.518V47.1602H140.573L140.59 47.8926C140.946 47.3262 141.45 47.043 142.102 47.043C142.313 47.043 142.473 47.0703 142.583 47.125V48.1328Z" fill="white"/>
<path d="M146.098 53.6172C145.239 53.6172 144.54 53.3359 144 52.7734C143.461 52.207 143.192 51.4512 143.192 50.5059V50.3066C143.192 49.6777 143.311 49.1172 143.549 48.625C143.792 48.1289 144.127 47.7422 144.557 47.4648C144.991 47.1836 145.459 47.043 145.963 47.043C146.788 47.043 147.428 47.3145 147.885 47.8574C148.342 48.4004 148.571 49.1777 148.571 50.1895V50.6406H144.276C144.292 51.2656 144.473 51.7715 144.821 52.1582C145.172 52.541 145.618 52.7324 146.157 52.7324C146.54 52.7324 146.864 52.6543 147.129 52.498C147.395 52.3418 147.627 52.1348 147.827 51.877L148.489 52.3926C147.958 53.209 147.161 53.6172 146.098 53.6172ZM145.963 47.9336C145.526 47.9336 145.159 48.0938 144.862 48.4141C144.565 48.7305 144.381 49.1758 144.311 49.75H147.487V49.668C147.456 49.1172 147.307 48.6914 147.042 48.3906C146.776 48.0859 146.417 47.9336 145.963 47.9336Z" fill="white"/>
<path d="M153.745 53.5C153.682 53.375 153.631 53.1523 153.592 52.832C153.088 53.3555 152.487 53.6172 151.788 53.6172C151.163 53.6172 150.649 53.4414 150.247 53.0898C149.848 52.7344 149.649 52.2852 149.649 51.7422C149.649 51.082 149.899 50.5703 150.399 50.207C150.903 49.8398 151.61 49.6562 152.52 49.6562H153.575V49.1582C153.575 48.7793 153.461 48.4785 153.235 48.2559C153.008 48.0293 152.674 47.916 152.233 47.916C151.846 47.916 151.522 48.0137 151.26 48.209C150.999 48.4043 150.868 48.6406 150.868 48.918H149.778C149.778 48.6016 149.889 48.2969 150.112 48.0039C150.338 47.707 150.643 47.4727 151.026 47.3008C151.413 47.1289 151.836 47.043 152.297 47.043C153.028 47.043 153.6 47.2266 154.014 47.5938C154.428 47.957 154.643 48.459 154.659 49.0996V52.0176C154.659 52.5996 154.733 53.0625 154.881 53.4062V53.5H153.745ZM151.946 52.6738C152.286 52.6738 152.608 52.5859 152.913 52.4102C153.217 52.2344 153.438 52.0059 153.575 51.7246V50.4238H152.725C151.397 50.4238 150.733 50.8125 150.733 51.5898C150.733 51.9297 150.846 52.1953 151.073 52.3867C151.299 52.5781 151.59 52.6738 151.946 52.6738Z" fill="white"/>
<path d="M157.829 45.625V47.1602H159.012V47.998H157.829V51.9297C157.829 52.1836 157.881 52.375 157.987 52.5039C158.092 52.6289 158.272 52.6914 158.526 52.6914C158.651 52.6914 158.823 52.668 159.042 52.6211V53.5C158.756 53.5781 158.479 53.6172 158.209 53.6172C157.725 53.6172 157.36 53.4707 157.114 53.1777C156.868 52.8848 156.745 52.4688 156.745 51.9297V47.998H155.59V47.1602H156.745V45.625H157.829Z" fill="white"/>
<path d="M161.461 53.5H160.377V47.1602H161.461V53.5ZM160.29 45.4785C160.29 45.3027 160.342 45.1543 160.448 45.0332C160.557 44.9121 160.717 44.8516 160.928 44.8516C161.139 44.8516 161.299 44.9121 161.409 45.0332C161.518 45.1543 161.573 45.3027 161.573 45.4785C161.573 45.6543 161.518 45.8008 161.409 45.918C161.299 46.0352 161.139 46.0938 160.928 46.0938C160.717 46.0938 160.557 46.0352 160.448 45.918C160.342 45.8008 160.29 45.6543 160.29 45.4785Z" fill="white"/>
<path d="M164.227 47.1602L164.262 47.957C164.747 47.3477 165.379 47.043 166.161 47.043C167.5 47.043 168.176 47.7988 168.188 49.3105V53.5H167.104V49.3047C167.1 48.8477 166.995 48.5098 166.788 48.291C166.584 48.0723 166.266 47.9629 165.833 47.9629C165.481 47.9629 165.172 48.0566 164.907 48.2441C164.641 48.4316 164.434 48.6777 164.286 48.9824V53.5H163.202V47.1602H164.227Z" fill="white"/>
<path d="M169.565 50.2773C169.565 49.2891 169.793 48.5039 170.25 47.9219C170.708 47.3359 171.313 47.043 172.067 47.043C172.84 47.043 173.444 47.3164 173.877 47.8633L173.93 47.1602H174.92V53.3477C174.92 54.168 174.676 54.8145 174.188 55.2871C173.704 55.7598 173.051 55.9961 172.231 55.9961C171.774 55.9961 171.327 55.8984 170.889 55.7031C170.452 55.5078 170.118 55.2402 169.887 54.9004L170.45 54.25C170.915 54.8242 171.483 55.1113 172.155 55.1113C172.682 55.1113 173.092 54.9629 173.385 54.666C173.682 54.3691 173.831 53.9512 173.831 53.4121V52.8672C173.397 53.3672 172.805 53.6172 172.055 53.6172C171.313 53.6172 170.711 53.3184 170.25 52.7207C169.793 52.123 169.565 51.3086 169.565 50.2773ZM170.655 50.4004C170.655 51.1152 170.801 51.6777 171.094 52.0879C171.387 52.4941 171.797 52.6973 172.325 52.6973C173.008 52.6973 173.51 52.3867 173.831 51.7656V48.8711C173.499 48.2656 173 47.9629 172.336 47.9629C171.809 47.9629 171.397 48.168 171.1 48.5781C170.803 48.9883 170.655 49.5957 170.655 50.4004Z" fill="white"/>
<path d="M180.715 53.5H179.631V47.1602H180.715V53.5ZM179.543 45.4785C179.543 45.3027 179.596 45.1543 179.702 45.0332C179.811 44.9121 179.971 44.8516 180.182 44.8516C180.393 44.8516 180.553 44.9121 180.663 45.0332C180.772 45.1543 180.827 45.3027 180.827 45.4785C180.827 45.6543 180.772 45.8008 180.663 45.918C180.553 46.0352 180.393 46.0938 180.182 46.0938C179.971 46.0938 179.811 46.0352 179.702 45.918C179.596 45.8008 179.543 45.6543 179.543 45.4785Z" fill="white"/>
<path d="M183.481 47.1602L183.516 47.957C184 47.3477 184.633 47.043 185.415 47.043C186.754 47.043 187.43 47.7988 187.442 49.3105V53.5H186.358V49.3047C186.354 48.8477 186.249 48.5098 186.042 48.291C185.838 48.0723 185.52 47.9629 185.086 47.9629C184.735 47.9629 184.426 48.0566 184.161 48.2441C183.895 48.4316 183.688 48.6777 183.54 48.9824V53.5H182.456V47.1602H183.481Z" fill="white"/>
<path d="M190.547 45.625V47.1602H191.731V47.998H190.547V51.9297C190.547 52.1836 190.6 52.375 190.706 52.5039C190.811 52.6289 190.991 52.6914 191.245 52.6914C191.37 52.6914 191.542 52.668 191.76 52.6211V53.5C191.475 53.5781 191.198 53.6172 190.928 53.6172C190.444 53.6172 190.079 53.4707 189.833 53.1777C189.586 52.8848 189.463 52.4688 189.463 51.9297V47.998H188.309V47.1602H189.463V45.625H190.547Z" fill="white"/>
<path d="M195.633 53.6172C194.774 53.6172 194.075 53.3359 193.536 52.7734C192.997 52.207 192.727 51.4512 192.727 50.5059V50.3066C192.727 49.6777 192.846 49.1172 193.084 48.625C193.327 48.1289 193.663 47.7422 194.092 47.4648C194.526 47.1836 194.995 47.043 195.499 47.043C196.323 47.043 196.963 47.3145 197.42 47.8574C197.877 48.4004 198.106 49.1777 198.106 50.1895V50.6406H193.811C193.827 51.2656 194.008 51.7715 194.356 52.1582C194.708 52.541 195.153 52.7324 195.692 52.7324C196.075 52.7324 196.399 52.6543 196.665 52.498C196.93 52.3418 197.163 52.1348 197.362 51.877L198.024 52.3926C197.493 53.209 196.696 53.6172 195.633 53.6172ZM195.499 47.9336C195.061 47.9336 194.694 48.0938 194.397 48.4141C194.1 48.7305 193.917 49.1758 193.846 49.75H197.022V49.668C196.991 49.1172 196.842 48.6914 196.577 48.3906C196.311 48.0859 195.952 47.9336 195.499 47.9336Z" fill="white"/>
<path d="M202.43 48.1328C202.266 48.1055 202.088 48.0918 201.897 48.0918C201.186 48.0918 200.704 48.3945 200.45 49V53.5H199.366V47.1602H200.42L200.438 47.8926C200.793 47.3262 201.297 47.043 201.95 47.043C202.161 47.043 202.321 47.0703 202.43 47.125V48.1328Z" fill="white"/>
<path d="M207.112 53.5C207.049 53.375 206.999 53.1523 206.959 52.832C206.456 53.3555 205.854 53.6172 205.155 53.6172C204.53 53.6172 204.016 53.4414 203.614 53.0898C203.215 52.7344 203.016 52.2852 203.016 51.7422C203.016 51.082 203.266 50.5703 203.766 50.207C204.27 49.8398 204.977 49.6562 205.887 49.6562H206.942V49.1582C206.942 48.7793 206.829 48.4785 206.602 48.2559C206.375 48.0293 206.042 47.916 205.6 47.916C205.213 47.916 204.889 48.0137 204.627 48.209C204.366 48.4043 204.235 48.6406 204.235 48.918H203.145C203.145 48.6016 203.256 48.2969 203.479 48.0039C203.706 47.707 204.01 47.4727 204.393 47.3008C204.78 47.1289 205.204 47.043 205.665 47.043C206.395 47.043 206.967 47.2266 207.381 47.5938C207.795 47.957 208.01 48.459 208.026 49.0996V52.0176C208.026 52.5996 208.1 53.0625 208.249 53.4062V53.5H207.112ZM205.313 52.6738C205.653 52.6738 205.975 52.5859 206.28 52.4102C206.584 52.2344 206.805 52.0059 206.942 51.7246V50.4238H206.092C204.764 50.4238 204.1 50.8125 204.1 51.5898C204.1 51.9297 204.213 52.1953 204.44 52.3867C204.667 52.5781 204.958 52.6738 205.313 52.6738Z" fill="white"/>
<path d="M212.268 52.7324C212.655 52.7324 212.993 52.6152 213.282 52.3809C213.571 52.1465 213.731 51.8535 213.762 51.502H214.788C214.768 51.8652 214.643 52.2109 214.413 52.5391C214.182 52.8672 213.874 53.1289 213.487 53.3242C213.104 53.5195 212.698 53.6172 212.268 53.6172C211.405 53.6172 210.717 53.3301 210.206 52.7559C209.698 52.1777 209.444 51.3887 209.444 50.3887V50.207C209.444 49.5898 209.557 49.041 209.784 48.5605C210.01 48.0801 210.334 47.707 210.756 47.4414C211.182 47.1758 211.684 47.043 212.262 47.043C212.973 47.043 213.563 47.2559 214.032 47.6816C214.504 48.1074 214.756 48.6602 214.788 49.3398H213.762C213.731 48.9297 213.575 48.5938 213.293 48.332C213.016 48.0664 212.672 47.9336 212.262 47.9336C211.711 47.9336 211.284 48.1328 210.979 48.5312C210.678 48.9258 210.528 49.498 210.528 50.248V50.4531C210.528 51.1836 210.678 51.7461 210.979 52.1406C211.28 52.5352 211.709 52.7324 212.268 52.7324Z" fill="white"/>
<path d="M217.477 45.625V47.1602H218.661V47.998H217.477V51.9297C217.477 52.1836 217.53 52.375 217.635 52.5039C217.741 52.6289 217.92 52.6914 218.174 52.6914C218.299 52.6914 218.471 52.668 218.69 52.6211V53.5C218.405 53.5781 218.127 53.6172 217.858 53.6172C217.374 53.6172 217.008 53.4707 216.762 53.1777C216.516 52.8848 216.393 52.4688 216.393 51.9297V47.998H215.239V47.1602H216.393V45.625H217.477Z" fill="white"/>
<path d="M221.11 53.5H220.026V47.1602H221.11V53.5ZM219.938 45.4785C219.938 45.3027 219.991 45.1543 220.096 45.0332C220.206 44.9121 220.366 44.8516 220.577 44.8516C220.788 44.8516 220.948 44.9121 221.057 45.0332C221.167 45.1543 221.221 45.3027 221.221 45.4785C221.221 45.6543 221.167 45.8008 221.057 45.918C220.948 46.0352 220.788 46.0938 220.577 46.0938C220.366 46.0938 220.206 46.0352 220.096 45.918C219.991 45.8008 219.938 45.6543 219.938 45.4785Z" fill="white"/>
<path d="M224.942 52.0293L226.512 47.1602H227.62L225.346 53.5H224.52L222.223 47.1602H223.331L224.942 52.0293Z" fill="white"/>
<path d="M231.211 53.6172C230.352 53.6172 229.653 53.3359 229.114 52.7734C228.575 52.207 228.305 51.4512 228.305 50.5059V50.3066C228.305 49.6777 228.424 49.1172 228.663 48.625C228.905 48.1289 229.241 47.7422 229.67 47.4648C230.104 47.1836 230.573 47.043 231.077 47.043C231.901 47.043 232.542 47.3145 232.999 47.8574C233.456 48.4004 233.684 49.1777 233.684 50.1895V50.6406H229.389C229.405 51.2656 229.586 51.7715 229.934 52.1582C230.286 52.541 230.731 52.7324 231.27 52.7324C231.653 52.7324 231.977 52.6543 232.243 52.498C232.508 52.3418 232.741 52.1348 232.94 51.877L233.602 52.3926C233.071 53.209 232.274 53.6172 231.211 53.6172ZM231.077 47.9336C230.639 47.9336 230.272 48.0938 229.975 48.4141C229.678 48.7305 229.495 49.1758 229.424 49.75H232.6V49.668C232.569 49.1172 232.42 48.6914 232.155 48.3906C231.889 48.0859 231.53 47.9336 231.077 47.9336Z" fill="white"/>
<path d="M237.692 51.209C237.692 50.7988 237.805 50.4219 238.032 50.0781C238.262 49.7344 238.7 49.334 239.344 48.877C238.965 48.416 238.711 48.0449 238.583 47.7637C238.454 47.4824 238.389 47.2031 238.389 46.9258C238.389 46.2773 238.581 45.7695 238.963 45.4023C239.346 45.0352 239.866 44.8516 240.522 44.8516C241.108 44.8516 241.592 45.0234 241.975 45.3672C242.358 45.707 242.549 46.1367 242.549 46.6562C242.549 47 242.461 47.3184 242.286 47.6113C242.114 47.9004 241.811 48.2051 241.377 48.5254L240.75 48.9883L242.649 51.2559C242.915 50.748 243.047 50.1836 243.047 49.5625H244.026C244.026 50.5586 243.786 51.3848 243.305 52.041L244.524 53.5H243.223L242.655 52.8262C242.366 53.084 242.026 53.2812 241.635 53.418C241.249 53.5508 240.854 53.6172 240.452 53.6172C239.62 53.6172 238.952 53.3965 238.448 52.9551C237.944 52.5137 237.692 51.9316 237.692 51.209ZM240.452 52.7324C241.026 52.7324 241.551 52.5137 242.028 52.0762L239.948 49.5859L239.754 49.7266C239.102 50.207 238.776 50.7012 238.776 51.209C238.776 51.6699 238.924 52.0391 239.221 52.3164C239.522 52.5938 239.932 52.7324 240.452 52.7324ZM239.473 46.8906C239.473 47.2656 239.704 47.7344 240.165 48.2969L240.856 47.8105C241.122 47.623 241.303 47.4453 241.401 47.2773C241.499 47.1055 241.547 46.8984 241.547 46.6562C241.547 46.3945 241.45 46.1777 241.254 46.0059C241.059 45.8301 240.813 45.7422 240.516 45.7422C240.196 45.7422 239.942 45.8516 239.754 46.0703C239.567 46.2852 239.473 46.5586 239.473 46.8906Z" fill="white"/>
<path d="M70.6704 65.8184C70.6704 65.5254 70.5591 65.2988 70.3364 65.1387C70.1177 64.9746 69.7329 64.834 69.1821 64.7168C68.6353 64.5996 68.1997 64.459 67.8755 64.2949C67.5552 64.1309 67.3169 63.9355 67.1606 63.709C67.0083 63.4824 66.9321 63.2129 66.9321 62.9004C66.9321 62.3809 67.1509 61.9414 67.5884 61.582C68.0298 61.2227 68.5923 61.043 69.2759 61.043C69.9946 61.043 70.5767 61.2285 71.022 61.5996C71.4712 61.9707 71.6958 62.4453 71.6958 63.0234H70.606C70.606 62.7266 70.479 62.4707 70.2251 62.2559C69.9751 62.041 69.6587 61.9336 69.2759 61.9336C68.8813 61.9336 68.5728 62.0195 68.3501 62.1914C68.1274 62.3633 68.0161 62.5879 68.0161 62.8652C68.0161 63.127 68.1196 63.3242 68.3267 63.457C68.5337 63.5898 68.9067 63.7168 69.4458 63.8379C69.9888 63.959 70.4282 64.1035 70.7642 64.2715C71.1001 64.4395 71.3481 64.6426 71.5083 64.8809C71.6724 65.1152 71.7544 65.4023 71.7544 65.7422C71.7544 66.3086 71.5278 66.7637 71.0747 67.1074C70.6216 67.4473 70.0337 67.6172 69.311 67.6172C68.8032 67.6172 68.354 67.5273 67.9634 67.3477C67.5728 67.168 67.2661 66.918 67.0435 66.5977C66.8247 66.2734 66.7153 65.9238 66.7153 65.5488H67.7993C67.8188 65.9121 67.9634 66.2012 68.2329 66.416C68.5063 66.627 68.8657 66.7324 69.311 66.7324C69.7212 66.7324 70.0493 66.6504 70.2954 66.4863C70.5454 66.3184 70.6704 66.0957 70.6704 65.8184Z" fill="white"/>
<path d="M74.2505 61.9277C74.731 61.3379 75.356 61.043 76.1255 61.043C77.4653 61.043 78.1411 61.7988 78.1528 63.3105V67.5H77.0688V63.3047C77.0649 62.8477 76.9595 62.5098 76.7524 62.291C76.5493 62.0723 76.231 61.9629 75.7974 61.9629C75.4458 61.9629 75.1372 62.0566 74.8716 62.2441C74.606 62.4316 74.3989 62.6777 74.2505 62.9824V67.5H73.1665V58.5H74.2505V61.9277Z" fill="white"/>
<path d="M83.6899 67.5C83.6274 67.375 83.5767 67.1523 83.5376 66.832C83.0337 67.3555 82.4321 67.6172 81.7329 67.6172C81.1079 67.6172 80.5942 67.4414 80.1919 67.0898C79.7935 66.7344 79.5942 66.2852 79.5942 65.7422C79.5942 65.082 79.8442 64.5703 80.3442 64.207C80.8481 63.8398 81.5552 63.6562 82.4653 63.6562H83.52V63.1582C83.52 62.7793 83.4067 62.4785 83.1802 62.2559C82.9536 62.0293 82.6196 61.916 82.1782 61.916C81.7915 61.916 81.4673 62.0137 81.2056 62.209C80.9438 62.4043 80.813 62.6406 80.813 62.918H79.7231C79.7231 62.6016 79.8345 62.2969 80.0571 62.0039C80.2837 61.707 80.5884 61.4727 80.9712 61.3008C81.3579 61.1289 81.7817 61.043 82.2427 61.043C82.9731 61.043 83.5454 61.2266 83.9595 61.5938C84.3735 61.957 84.5884 62.459 84.604 63.0996V66.0176C84.604 66.5996 84.6782 67.0625 84.8267 67.4062V67.5H83.6899ZM81.8911 66.6738C82.231 66.6738 82.5532 66.5859 82.8579 66.4102C83.1626 66.2344 83.3833 66.0059 83.52 65.7246V64.4238H82.6704C81.3423 64.4238 80.6782 64.8125 80.6782 65.5898C80.6782 65.9297 80.7915 66.1953 81.0181 66.3867C81.2446 66.5781 81.5356 66.6738 81.8911 66.6738Z" fill="white"/>
<path d="M89.3677 62.1328C89.2036 62.1055 89.0259 62.0918 88.8345 62.0918C88.1235 62.0918 87.6411 62.3945 87.3872 63V67.5H86.3032V61.1602H87.3579L87.3755 61.8926C87.731 61.3262 88.2349 61.043 88.8872 61.043C89.0981 61.043 89.2583 61.0703 89.3677 61.125V62.1328Z" fill="white"/>
<path d="M92.8833 67.6172C92.0239 67.6172 91.3247 67.3359 90.7856 66.7734C90.2466 66.207 89.9771 65.4512 89.9771 64.5059V64.3066C89.9771 63.6777 90.0962 63.1172 90.3345 62.625C90.5767 62.1289 90.9126 61.7422 91.3423 61.4648C91.7759 61.1836 92.2446 61.043 92.7485 61.043C93.5728 61.043 94.2134 61.3145 94.6704 61.8574C95.1274 62.4004 95.356 63.1777 95.356 64.1895V64.6406H91.061C91.0767 65.2656 91.2583 65.7715 91.606 66.1582C91.9575 66.541 92.4028 66.7324 92.9419 66.7324C93.3247 66.7324 93.6489 66.6543 93.9146 66.498C94.1802 66.3418 94.4126 66.1348 94.6118 65.877L95.2739 66.3926C94.7427 67.209 93.9458 67.6172 92.8833 67.6172ZM92.7485 61.9336C92.311 61.9336 91.9438 62.0938 91.647 62.4141C91.3501 62.7305 91.1665 63.1758 91.0962 63.75H94.272V63.668C94.2407 63.1172 94.0923 62.6914 93.8267 62.3906C93.561 62.0859 93.2017 61.9336 92.7485 61.9336Z" fill="white"/>
<path d="M100.53 67.5C100.467 67.375 100.417 67.1523 100.377 66.832C99.8735 67.3555 99.272 67.6172 98.5728 67.6172C97.9478 67.6172 97.4341 67.4414 97.0317 67.0898C96.6333 66.7344 96.4341 66.2852 96.4341 65.7422C96.4341 65.082 96.6841 64.5703 97.1841 64.207C97.688 63.8398 98.395 63.6562 99.3052 63.6562H100.36V63.1582C100.36 62.7793 100.247 62.4785 100.02 62.2559C99.7935 62.0293 99.4595 61.916 99.0181 61.916C98.6313 61.916 98.3071 62.0137 98.0454 62.209C97.7837 62.4043 97.6528 62.6406 97.6528 62.918H96.563C96.563 62.6016 96.6743 62.2969 96.897 62.0039C97.1235 61.707 97.4282 61.4727 97.811 61.3008C98.1978 61.1289 98.6216 61.043 99.0825 61.043C99.813 61.043 100.385 61.2266 100.799 61.5938C101.213 61.957 101.428 62.459 101.444 63.0996V66.0176C101.444 66.5996 101.518 67.0625 101.667 67.4062V67.5H100.53ZM98.731 66.6738C99.0708 66.6738 99.3931 66.5859 99.6978 66.4102C100.002 66.2344 100.223 66.0059 100.36 65.7246V64.4238H99.5103C98.1821 64.4238 97.5181 64.8125 97.5181 65.5898C97.5181 65.9297 97.6313 66.1953 97.8579 66.3867C98.0845 66.5781 98.3755 66.6738 98.731 66.6738Z" fill="white"/>
<path d="M108.51 64.4004C108.51 65.3691 108.288 66.1484 107.842 66.7383C107.397 67.3242 106.799 67.6172 106.049 67.6172C105.249 67.6172 104.629 67.334 104.192 66.7676L104.139 67.5H103.143V58.5H104.227V61.8574C104.665 61.3145 105.268 61.043 106.038 61.043C106.807 61.043 107.411 61.334 107.848 61.916C108.29 62.498 108.51 63.2949 108.51 64.3066V64.4004ZM107.426 64.2773C107.426 63.5391 107.284 62.9688 106.999 62.5664C106.713 62.1641 106.303 61.9629 105.768 61.9629C105.053 61.9629 104.54 62.2949 104.227 62.959V65.7012C104.559 66.3652 105.077 66.6973 105.78 66.6973C106.299 66.6973 106.704 66.4961 106.993 66.0938C107.282 65.6914 107.426 65.0859 107.426 64.2773Z" fill="white"/>
<path d="M111.059 67.5H109.975V58.5H111.059V67.5Z" fill="white"/>
<path d="M115.43 67.6172C114.571 67.6172 113.872 67.3359 113.333 66.7734C112.793 66.207 112.524 65.4512 112.524 64.5059V64.3066C112.524 63.6777 112.643 63.1172 112.881 62.625C113.124 62.1289 113.459 61.7422 113.889 61.4648C114.323 61.1836 114.792 61.043 115.295 61.043C116.12 61.043 116.76 61.3145 117.217 61.8574C117.674 62.4004 117.903 63.1777 117.903 64.1895V64.6406H113.608C113.624 65.2656 113.805 65.7715 114.153 66.1582C114.504 66.541 114.95 66.7324 115.489 66.7324C115.872 66.7324 116.196 66.6543 116.461 66.498C116.727 66.3418 116.959 66.1348 117.159 65.877L117.821 66.3926C117.29 67.209 116.493 67.6172 115.43 67.6172ZM115.295 61.9336C114.858 61.9336 114.491 62.0938 114.194 62.4141C113.897 62.7305 113.713 63.1758 113.643 63.75H116.819V63.668C116.788 63.1172 116.639 62.6914 116.374 62.3906C116.108 62.0859 115.749 61.9336 115.295 61.9336Z" fill="white"/>
<path d="M124.77 67.6172C123.911 67.6172 123.211 67.3359 122.672 66.7734C122.133 66.207 121.864 65.4512 121.864 64.5059V64.3066C121.864 63.6777 121.983 63.1172 122.221 62.625C122.463 62.1289 122.799 61.7422 123.229 61.4648C123.663 61.1836 124.131 61.043 124.635 61.043C125.459 61.043 126.1 61.3145 126.557 61.8574C127.014 62.4004 127.243 63.1777 127.243 64.1895V64.6406H122.948C122.963 65.2656 123.145 65.7715 123.493 66.1582C123.844 66.541 124.29 66.7324 124.829 66.7324C125.211 66.7324 125.536 66.6543 125.801 66.498C126.067 66.3418 126.299 66.1348 126.499 65.877L127.161 66.3926C126.629 67.209 125.833 67.6172 124.77 67.6172ZM124.635 61.9336C124.198 61.9336 123.831 62.0938 123.534 62.4141C123.237 62.7305 123.053 63.1758 122.983 63.75H126.159V63.668C126.127 63.1172 125.979 62.6914 125.713 62.3906C125.448 62.0859 125.088 61.9336 124.635 61.9336Z" fill="white"/>
<path d="M132.194 65.8184C132.194 65.5254 132.083 65.2988 131.86 65.1387C131.641 64.9746 131.256 64.834 130.706 64.7168C130.159 64.5996 129.723 64.459 129.399 64.2949C129.079 64.1309 128.84 63.9355 128.684 63.709C128.532 63.4824 128.456 63.2129 128.456 62.9004C128.456 62.3809 128.674 61.9414 129.112 61.582C129.553 61.2227 130.116 61.043 130.799 61.043C131.518 61.043 132.1 61.2285 132.545 61.5996C132.995 61.9707 133.219 62.4453 133.219 63.0234H132.129C132.129 62.7266 132.002 62.4707 131.749 62.2559C131.499 62.041 131.182 61.9336 130.799 61.9336C130.405 61.9336 130.096 62.0195 129.874 62.1914C129.651 62.3633 129.54 62.5879 129.54 62.8652C129.54 63.127 129.643 63.3242 129.85 63.457C130.057 63.5898 130.43 63.7168 130.969 63.8379C131.512 63.959 131.952 64.1035 132.288 64.2715C132.624 64.4395 132.872 64.6426 133.032 64.8809C133.196 65.1152 133.278 65.4023 133.278 65.7422C133.278 66.3086 133.051 66.7637 132.598 67.1074C132.145 67.4473 131.557 67.6172 130.834 67.6172C130.327 67.6172 129.877 67.5273 129.487 67.3477C129.096 67.168 128.79 66.918 128.567 66.5977C128.348 66.2734 128.239 65.9238 128.239 65.5488H129.323C129.342 65.9121 129.487 66.2012 129.756 66.416C130.03 66.627 130.389 66.7324 130.834 66.7324C131.245 66.7324 131.573 66.6504 131.819 66.4863C132.069 66.3184 132.194 66.0957 132.194 65.8184Z" fill="white"/>
<path d="M138.381 65.8184C138.381 65.5254 138.27 65.2988 138.047 65.1387C137.829 64.9746 137.444 64.834 136.893 64.7168C136.346 64.5996 135.911 64.459 135.586 64.2949C135.266 64.1309 135.028 63.9355 134.872 63.709C134.719 63.4824 134.643 63.2129 134.643 62.9004C134.643 62.3809 134.862 61.9414 135.299 61.582C135.741 61.2227 136.303 61.043 136.987 61.043C137.706 61.043 138.288 61.2285 138.733 61.5996C139.182 61.9707 139.407 62.4453 139.407 63.0234H138.317C138.317 62.7266 138.19 62.4707 137.936 62.2559C137.686 62.041 137.37 61.9336 136.987 61.9336C136.592 61.9336 136.284 62.0195 136.061 62.1914C135.838 62.3633 135.727 62.5879 135.727 62.8652C135.727 63.127 135.831 63.3242 136.038 63.457C136.245 63.5898 136.618 63.7168 137.157 63.8379C137.7 63.959 138.139 64.1035 138.475 64.2715C138.811 64.4395 139.059 64.6426 139.219 64.8809C139.383 65.1152 139.465 65.4023 139.465 65.7422C139.465 66.3086 139.239 66.7637 138.786 67.1074C138.333 67.4473 137.745 67.6172 137.022 67.6172C136.514 67.6172 136.065 67.5273 135.674 67.3477C135.284 67.168 134.977 66.918 134.754 66.5977C134.536 66.2734 134.426 65.9238 134.426 65.5488H135.51C135.53 65.9121 135.674 66.2012 135.944 66.416C136.217 66.627 136.577 66.7324 137.022 66.7324C137.432 66.7324 137.76 66.6504 138.006 66.4863C138.256 66.3184 138.381 66.0957 138.381 65.8184Z" fill="white"/>
<path d="M144.792 67.5C144.729 67.375 144.678 67.1523 144.639 66.832C144.135 67.3555 143.534 67.6172 142.834 67.6172C142.209 67.6172 141.696 67.4414 141.293 67.0898C140.895 66.7344 140.696 66.2852 140.696 65.7422C140.696 65.082 140.946 64.5703 141.446 64.207C141.95 63.8398 142.657 63.6562 143.567 63.6562H144.622V63.1582C144.622 62.7793 144.508 62.4785 144.282 62.2559C144.055 62.0293 143.721 61.916 143.28 61.916C142.893 61.916 142.569 62.0137 142.307 62.209C142.045 62.4043 141.915 62.6406 141.915 62.918H140.825C140.825 62.6016 140.936 62.2969 141.159 62.0039C141.385 61.707 141.69 61.4727 142.073 61.3008C142.459 61.1289 142.883 61.043 143.344 61.043C144.075 61.043 144.647 61.2266 145.061 61.5938C145.475 61.957 145.69 62.459 145.706 63.0996V66.0176C145.706 66.5996 145.78 67.0625 145.928 67.4062V67.5H144.792ZM142.993 66.6738C143.333 66.6738 143.655 66.5859 143.959 66.4102C144.264 66.2344 144.485 66.0059 144.622 65.7246V64.4238H143.772C142.444 64.4238 141.78 64.8125 141.78 65.5898C141.78 65.9297 141.893 66.1953 142.12 66.3867C142.346 66.5781 142.637 66.6738 142.993 66.6738Z" fill="white"/>
<path d="M149.385 65.9121L150.862 61.1602H152.022L149.473 68.4785C149.079 69.5332 148.452 70.0605 147.592 70.0605L147.387 70.043L146.983 69.9668V69.0879L147.276 69.1113C147.643 69.1113 147.928 69.0371 148.131 68.8887C148.338 68.7402 148.508 68.4688 148.641 68.0742L148.881 67.4297L146.62 61.1602H147.803L149.385 65.9121Z" fill="white"/>
<path d="M156.686 65.8184C156.686 65.5254 156.575 65.2988 156.352 65.1387C156.133 64.9746 155.749 64.834 155.198 64.7168C154.651 64.5996 154.215 64.459 153.891 64.2949C153.571 64.1309 153.333 63.9355 153.176 63.709C153.024 63.4824 152.948 63.2129 152.948 62.9004C152.948 62.3809 153.167 61.9414 153.604 61.582C154.045 61.2227 154.608 61.043 155.292 61.043C156.01 61.043 156.592 61.2285 157.038 61.5996C157.487 61.9707 157.711 62.4453 157.711 63.0234H156.622C156.622 62.7266 156.495 62.4707 156.241 62.2559C155.991 62.041 155.674 61.9336 155.292 61.9336C154.897 61.9336 154.588 62.0195 154.366 62.1914C154.143 62.3633 154.032 62.5879 154.032 62.8652C154.032 63.127 154.135 63.3242 154.342 63.457C154.549 63.5898 154.922 63.7168 155.461 63.8379C156.004 63.959 156.444 64.1035 156.78 64.2715C157.116 64.4395 157.364 64.6426 157.524 64.8809C157.688 65.1152 157.77 65.4023 157.77 65.7422C157.77 66.3086 157.543 66.7637 157.09 67.1074C156.637 67.4473 156.049 67.6172 155.327 67.6172C154.819 67.6172 154.37 67.5273 153.979 67.3477C153.588 67.168 153.282 66.918 153.059 66.5977C152.84 66.2734 152.731 65.9238 152.731 65.5488H153.815C153.834 65.9121 153.979 66.2012 154.249 66.416C154.522 66.627 154.881 66.7324 155.327 66.7324C155.737 66.7324 156.065 66.6504 156.311 66.4863C156.561 66.3184 156.686 66.0957 156.686 65.8184Z" fill="white"/>
<path d="M166.073 66.873C165.651 67.3691 165.032 67.6172 164.215 67.6172C163.54 67.6172 163.024 67.4219 162.668 67.0312C162.317 66.6367 162.139 66.0547 162.135 65.2852V61.1602H163.219V65.2559C163.219 66.2168 163.61 66.6973 164.391 66.6973C165.219 66.6973 165.77 66.3887 166.043 65.7715V61.1602H167.127V67.5H166.096L166.073 66.873Z" fill="white"/>
<path d="M172.471 65.8184C172.471 65.5254 172.36 65.2988 172.137 65.1387C171.918 64.9746 171.534 64.834 170.983 64.7168C170.436 64.5996 170 64.459 169.676 64.2949C169.356 64.1309 169.118 63.9355 168.961 63.709C168.809 63.4824 168.733 63.2129 168.733 62.9004C168.733 62.3809 168.952 61.9414 169.389 61.582C169.831 61.2227 170.393 61.043 171.077 61.043C171.795 61.043 172.377 61.2285 172.823 61.5996C173.272 61.9707 173.497 62.4453 173.497 63.0234H172.407C172.407 62.7266 172.28 62.4707 172.026 62.2559C171.776 62.041 171.459 61.9336 171.077 61.9336C170.682 61.9336 170.374 62.0195 170.151 62.1914C169.928 62.3633 169.817 62.5879 169.817 62.8652C169.817 63.127 169.92 63.3242 170.127 63.457C170.334 63.5898 170.708 63.7168 171.247 63.8379C171.79 63.959 172.229 64.1035 172.565 64.2715C172.901 64.4395 173.149 64.6426 173.309 64.8809C173.473 65.1152 173.555 65.4023 173.555 65.7422C173.555 66.3086 173.329 66.7637 172.875 67.1074C172.422 67.4473 171.834 67.6172 171.112 67.6172C170.604 67.6172 170.155 67.5273 169.764 67.3477C169.374 67.168 169.067 66.918 168.844 66.5977C168.625 66.2734 168.516 65.9238 168.516 65.5488H169.6C169.62 65.9121 169.764 66.2012 170.034 66.416C170.307 66.627 170.667 66.7324 171.112 66.7324C171.522 66.7324 171.85 66.6504 172.096 66.4863C172.346 66.3184 172.471 66.0957 172.471 65.8184Z" fill="white"/>
<path d="M176.145 67.5H175.061V61.1602H176.145V67.5ZM174.973 59.4785C174.973 59.3027 175.026 59.1543 175.131 59.0332C175.241 58.9121 175.401 58.8516 175.612 58.8516C175.823 58.8516 175.983 58.9121 176.092 59.0332C176.202 59.1543 176.256 59.3027 176.256 59.4785C176.256 59.6543 176.202 59.8008 176.092 59.918C175.983 60.0352 175.823 60.0938 175.612 60.0938C175.401 60.0938 175.241 60.0352 175.131 59.918C175.026 59.8008 174.973 59.6543 174.973 59.4785Z" fill="white"/>
<path d="M178.911 61.1602L178.946 61.957C179.43 61.3477 180.063 61.043 180.844 61.043C182.184 61.043 182.86 61.7988 182.872 63.3105V67.5H181.788V63.3047C181.784 62.8477 181.678 62.5098 181.471 62.291C181.268 62.0723 180.95 61.9629 180.516 61.9629C180.165 61.9629 179.856 62.0566 179.59 62.2441C179.325 62.4316 179.118 62.6777 178.969 62.9824V67.5H177.885V61.1602H178.911Z" fill="white"/>
<path d="M184.249 64.2773C184.249 63.2891 184.477 62.5039 184.934 61.9219C185.391 61.3359 185.997 61.043 186.75 61.043C187.524 61.043 188.127 61.3164 188.561 61.8633L188.614 61.1602H189.604V67.3477C189.604 68.168 189.36 68.8145 188.872 69.2871C188.387 69.7598 187.735 69.9961 186.915 69.9961C186.458 69.9961 186.01 69.8984 185.573 69.7031C185.135 69.5078 184.801 69.2402 184.571 68.9004L185.133 68.25C185.598 68.8242 186.167 69.1113 186.838 69.1113C187.366 69.1113 187.776 68.9629 188.069 68.666C188.366 68.3691 188.514 67.9512 188.514 67.4121V66.8672C188.081 67.3672 187.489 67.6172 186.739 67.6172C185.997 67.6172 185.395 67.3184 184.934 66.7207C184.477 66.123 184.249 65.3086 184.249 64.2773ZM185.338 64.4004C185.338 65.1152 185.485 65.6777 185.778 66.0879C186.071 66.4941 186.481 66.6973 187.008 66.6973C187.692 66.6973 188.194 66.3867 188.514 65.7656V62.8711C188.182 62.2656 187.684 61.9629 187.02 61.9629C186.493 61.9629 186.081 62.168 185.784 62.5781C185.487 62.9883 185.338 63.5957 185.338 64.4004Z" fill="white"/>
<path d="M193.934 64.2715C193.934 63.6504 194.055 63.0918 194.297 62.5957C194.543 62.0996 194.883 61.7168 195.317 61.4473C195.754 61.1777 196.252 61.043 196.811 61.043C197.674 61.043 198.372 61.3418 198.903 61.9395C199.438 62.5371 199.706 63.332 199.706 64.3242V64.4004C199.706 65.0176 199.586 65.5723 199.348 66.0645C199.114 66.5527 198.776 66.9336 198.334 67.207C197.897 67.4805 197.393 67.6172 196.823 67.6172C195.963 67.6172 195.266 67.3184 194.731 66.7207C194.2 66.123 193.934 65.332 193.934 64.3477V64.2715ZM195.024 64.4004C195.024 65.1035 195.186 65.668 195.51 66.0938C195.838 66.5195 196.276 66.7324 196.823 66.7324C197.374 66.7324 197.811 66.5176 198.135 66.0879C198.459 65.6543 198.622 65.0488 198.622 64.2715C198.622 63.5762 198.456 63.0137 198.124 62.584C197.795 62.1504 197.358 61.9336 196.811 61.9336C196.276 61.9336 195.844 62.1465 195.516 62.5723C195.188 62.998 195.024 63.6074 195.024 64.4004Z" fill="white"/>
<path d="M206.42 64.4004C206.42 65.3652 206.2 66.1426 205.758 66.7324C205.317 67.3223 204.719 67.6172 203.965 67.6172C203.196 67.6172 202.59 67.373 202.149 66.8848V69.9375H201.065V61.1602H202.055L202.108 61.8633C202.549 61.3164 203.163 61.043 203.948 61.043C204.709 61.043 205.311 61.3301 205.752 61.9043C206.198 62.4785 206.42 63.2773 206.42 64.3008V64.4004ZM205.336 64.2773C205.336 63.5625 205.184 62.998 204.879 62.584C204.575 62.1699 204.157 61.9629 203.625 61.9629C202.969 61.9629 202.477 62.2539 202.149 62.8359V65.8652C202.473 66.4434 202.969 66.7324 203.637 66.7324C204.157 66.7324 204.569 66.5273 204.874 66.1172C205.182 65.7031 205.336 65.0898 205.336 64.2773Z" fill="white"/>
<path d="M210.434 67.6172C209.575 67.6172 208.875 67.3359 208.336 66.7734C207.797 66.207 207.528 65.4512 207.528 64.5059V64.3066C207.528 63.6777 207.647 63.1172 207.885 62.625C208.127 62.1289 208.463 61.7422 208.893 61.4648C209.327 61.1836 209.795 61.043 210.299 61.043C211.124 61.043 211.764 61.3145 212.221 61.8574C212.678 62.4004 212.907 63.1777 212.907 64.1895V64.6406H208.612C208.627 65.2656 208.809 65.7715 209.157 66.1582C209.508 66.541 209.954 66.7324 210.493 66.7324C210.875 66.7324 211.2 66.6543 211.465 66.498C211.731 66.3418 211.963 66.1348 212.163 65.877L212.825 66.3926C212.293 67.209 211.497 67.6172 210.434 67.6172ZM210.299 61.9336C209.862 61.9336 209.495 62.0938 209.198 62.4141C208.901 62.7305 208.717 63.1758 208.647 63.75H211.823V63.668C211.792 63.1172 211.643 62.6914 211.377 62.3906C211.112 62.0859 210.752 61.9336 210.299 61.9336Z" fill="white"/>
<path d="M215.192 61.1602L215.227 61.957C215.711 61.3477 216.344 61.043 217.125 61.043C218.465 61.043 219.141 61.7988 219.153 63.3105V67.5H218.069V63.3047C218.065 62.8477 217.959 62.5098 217.752 62.291C217.549 62.0723 217.231 61.9629 216.797 61.9629C216.446 61.9629 216.137 62.0566 215.872 62.2441C215.606 62.4316 215.399 62.6777 215.25 62.9824V67.5H214.167V61.1602H215.192Z" fill="white"/>
<path d="M229.377 66.0059L230.596 61.1602H231.68L229.834 67.5H228.956L227.415 62.6953L225.915 67.5H225.036L223.196 61.1602H224.274L225.522 65.9062L226.999 61.1602H227.872L229.377 66.0059Z" fill="white"/>
<path d="M235.418 67.6172C234.559 67.6172 233.86 67.3359 233.321 66.7734C232.782 66.207 232.512 65.4512 232.512 64.5059V64.3066C232.512 63.6777 232.631 63.1172 232.87 62.625C233.112 62.1289 233.448 61.7422 233.877 61.4648C234.311 61.1836 234.78 61.043 235.284 61.043C236.108 61.043 236.749 61.3145 237.206 61.8574C237.663 62.4004 237.891 63.1777 237.891 64.1895V64.6406H233.596C233.612 65.2656 233.793 65.7715 234.141 66.1582C234.493 66.541 234.938 66.7324 235.477 66.7324C235.86 66.7324 236.184 66.6543 236.45 66.498C236.715 66.3418 236.948 66.1348 237.147 65.877L237.809 66.3926C237.278 67.209 236.481 67.6172 235.418 67.6172ZM235.284 61.9336C234.846 61.9336 234.479 62.0938 234.182 62.4141C233.885 62.7305 233.702 63.1758 233.631 63.75H236.807V63.668C236.776 63.1172 236.627 62.6914 236.362 62.3906C236.096 62.0859 235.737 61.9336 235.284 61.9336Z" fill="white"/>
<path d="M244.518 64.4004C244.518 65.3691 244.295 66.1484 243.85 66.7383C243.405 67.3242 242.807 67.6172 242.057 67.6172C241.256 67.6172 240.637 67.334 240.2 66.7676L240.147 67.5H239.151V58.5H240.235V61.8574C240.672 61.3145 241.276 61.043 242.045 61.043C242.815 61.043 243.418 61.334 243.856 61.916C244.297 62.498 244.518 63.2949 244.518 64.3066V64.4004ZM243.434 64.2773C243.434 63.5391 243.292 62.9688 243.006 62.5664C242.721 62.1641 242.311 61.9629 241.776 61.9629C241.061 61.9629 240.547 62.2949 240.235 62.959V65.7012C240.567 66.3652 241.084 66.6973 241.788 66.6973C242.307 66.6973 242.711 66.4961 243 66.0938C243.29 65.6914 243.434 65.0859 243.434 64.2773Z" fill="white"/>
<path d="M251.93 62.1328C251.766 62.1055 251.588 62.0918 251.397 62.0918C250.686 62.0918 250.204 62.3945 249.95 63V67.5H248.866V61.1602H249.92L249.938 61.8926C250.293 61.3262 250.797 61.043 251.45 61.043C251.661 61.043 251.821 61.0703 251.93 61.125V62.1328Z" fill="white"/>
<path d="M255.446 67.6172C254.586 67.6172 253.887 67.3359 253.348 66.7734C252.809 66.207 252.54 65.4512 252.54 64.5059V64.3066C252.54 63.6777 252.659 63.1172 252.897 62.625C253.139 62.1289 253.475 61.7422 253.905 61.4648C254.338 61.1836 254.807 61.043 255.311 61.043C256.135 61.043 256.776 61.3145 257.233 61.8574C257.69 62.4004 257.918 63.1777 257.918 64.1895V64.6406H253.624C253.639 65.2656 253.821 65.7715 254.168 66.1582C254.52 66.541 254.965 66.7324 255.504 66.7324C255.887 66.7324 256.211 66.6543 256.477 66.498C256.743 66.3418 256.975 66.1348 257.174 65.877L257.836 66.3926C257.305 67.209 256.508 67.6172 255.446 67.6172ZM255.311 61.9336C254.874 61.9336 254.506 62.0938 254.209 62.4141C253.913 62.7305 253.729 63.1758 253.659 63.75H256.834V63.668C256.803 63.1172 256.655 62.6914 256.389 62.3906C256.124 62.0859 255.764 61.9336 255.311 61.9336Z" fill="white"/>
<path d="M262.87 65.8184C262.87 65.5254 262.758 65.2988 262.536 65.1387C262.317 64.9746 261.932 64.834 261.381 64.7168C260.834 64.5996 260.399 64.459 260.075 64.2949C259.754 64.1309 259.516 63.9355 259.36 63.709C259.208 63.4824 259.131 63.2129 259.131 62.9004C259.131 62.3809 259.35 61.9414 259.788 61.582C260.229 61.2227 260.792 61.043 261.475 61.043C262.194 61.043 262.776 61.2285 263.221 61.5996C263.67 61.9707 263.895 62.4453 263.895 63.0234H262.805C262.805 62.7266 262.678 62.4707 262.424 62.2559C262.174 62.041 261.858 61.9336 261.475 61.9336C261.081 61.9336 260.772 62.0195 260.549 62.1914C260.327 62.3633 260.215 62.5879 260.215 62.8652C260.215 63.127 260.319 63.3242 260.526 63.457C260.733 63.5898 261.106 63.7168 261.645 63.8379C262.188 63.959 262.627 64.1035 262.963 64.2715C263.299 64.4395 263.547 64.6426 263.708 64.8809C263.872 65.1152 263.954 65.4023 263.954 65.7422C263.954 66.3086 263.727 66.7637 263.274 67.1074C262.821 67.4473 262.233 67.6172 261.51 67.6172C261.002 67.6172 260.553 67.5273 260.163 67.3477C259.772 67.168 259.465 66.918 259.243 66.5977C259.024 66.2734 258.915 65.9238 258.915 65.5488H259.999C260.018 65.9121 260.163 66.2012 260.432 66.416C260.706 66.627 261.065 66.7324 261.51 66.7324C261.92 66.7324 262.249 66.6504 262.495 66.4863C262.745 66.3184 262.87 66.0957 262.87 65.8184Z" fill="white"/>
<path d="M265.079 64.2715C265.079 63.6504 265.2 63.0918 265.442 62.5957C265.688 62.0996 266.028 61.7168 266.461 61.4473C266.899 61.1777 267.397 61.043 267.956 61.043C268.819 61.043 269.516 61.3418 270.047 61.9395C270.583 62.5371 270.85 63.332 270.85 64.3242V64.4004C270.85 65.0176 270.731 65.5723 270.493 66.0645C270.258 66.5527 269.92 66.9336 269.479 67.207C269.042 67.4805 268.538 67.6172 267.967 67.6172C267.108 67.6172 266.411 67.3184 265.875 66.7207C265.344 66.123 265.079 65.332 265.079 64.3477V64.2715ZM266.168 64.4004C266.168 65.1035 266.331 65.668 266.655 66.0938C266.983 66.5195 267.42 66.7324 267.967 66.7324C268.518 66.7324 268.956 66.5176 269.28 66.0879C269.604 65.6543 269.766 65.0488 269.766 64.2715C269.766 63.5762 269.6 63.0137 269.268 62.584C268.94 62.1504 268.502 61.9336 267.956 61.9336C267.42 61.9336 266.989 62.1465 266.661 62.5723C266.333 62.998 266.168 63.6074 266.168 64.4004Z" fill="white"/>
<path d="M276.124 66.873C275.702 67.3691 275.083 67.6172 274.266 67.6172C273.59 67.6172 273.075 67.4219 272.719 67.0312C272.368 66.6367 272.19 66.0547 272.186 65.2852V61.1602H273.27V65.2559C273.27 66.2168 273.661 66.6973 274.442 66.6973C275.27 66.6973 275.821 66.3887 276.094 65.7715V61.1602H277.178V67.5H276.147L276.124 66.873Z" fill="white"/>
<path d="M281.895 62.1328C281.731 62.1055 281.553 62.0918 281.362 62.0918C280.651 62.0918 280.168 62.3945 279.915 63V67.5H278.831V61.1602H279.885L279.903 61.8926C280.258 61.3262 280.762 61.043 281.415 61.043C281.625 61.043 281.786 61.0703 281.895 61.125V62.1328Z" fill="white"/>
<path d="M285.323 66.7324C285.709 66.7324 286.047 66.6152 286.336 66.3809C286.625 66.1465 286.786 65.8535 286.817 65.502H287.842C287.823 65.8652 287.698 66.2109 287.467 66.5391C287.237 66.8672 286.928 67.1289 286.542 67.3242C286.159 67.5195 285.752 67.6172 285.323 67.6172C284.459 67.6172 283.772 67.3301 283.26 66.7559C282.752 66.1777 282.499 65.3887 282.499 64.3887V64.207C282.499 63.5898 282.612 63.041 282.838 62.5605C283.065 62.0801 283.389 61.707 283.811 61.4414C284.237 61.1758 284.739 61.043 285.317 61.043C286.028 61.043 286.618 61.2559 287.086 61.6816C287.559 62.1074 287.811 62.6602 287.842 63.3398H286.817C286.786 62.9297 286.629 62.5938 286.348 62.332C286.071 62.0664 285.727 61.9336 285.317 61.9336C284.766 61.9336 284.338 62.1328 284.034 62.5312C283.733 62.9258 283.583 63.498 283.583 64.248V64.4531C283.583 65.1836 283.733 65.7461 284.034 66.1406C284.334 66.5352 284.764 66.7324 285.323 66.7324Z" fill="white"/>
<path d="M291.692 67.6172C290.833 67.6172 290.133 67.3359 289.594 66.7734C289.055 66.207 288.786 65.4512 288.786 64.5059V64.3066C288.786 63.6777 288.905 63.1172 289.143 62.625C289.385 62.1289 289.721 61.7422 290.151 61.4648C290.584 61.1836 291.053 61.043 291.557 61.043C292.381 61.043 293.022 61.3145 293.479 61.8574C293.936 62.4004 294.165 63.1777 294.165 64.1895V64.6406H289.87C289.885 65.2656 290.067 65.7715 290.415 66.1582C290.766 66.541 291.211 66.7324 291.75 66.7324C292.133 66.7324 292.458 66.6543 292.723 66.498C292.989 66.3418 293.221 66.1348 293.42 65.877L294.083 66.3926C293.551 67.209 292.754 67.6172 291.692 67.6172ZM291.557 61.9336C291.12 61.9336 290.752 62.0938 290.456 62.4141C290.159 62.7305 289.975 63.1758 289.905 63.75H293.081V63.668C293.049 63.1172 292.901 62.6914 292.635 62.3906C292.37 62.0859 292.01 61.9336 291.557 61.9336Z" fill="white"/>
<path d="M299.116 65.8184C299.116 65.5254 299.004 65.2988 298.782 65.1387C298.563 64.9746 298.178 64.834 297.627 64.7168C297.081 64.5996 296.645 64.459 296.321 64.2949C296 64.1309 295.762 63.9355 295.606 63.709C295.454 63.4824 295.377 63.2129 295.377 62.9004C295.377 62.3809 295.596 61.9414 296.034 61.582C296.475 61.2227 297.038 61.043 297.721 61.043C298.44 61.043 299.022 61.2285 299.467 61.5996C299.917 61.9707 300.141 62.4453 300.141 63.0234H299.051C299.051 62.7266 298.924 62.4707 298.67 62.2559C298.42 62.041 298.104 61.9336 297.721 61.9336C297.327 61.9336 297.018 62.0195 296.795 62.1914C296.573 62.3633 296.461 62.5879 296.461 62.8652C296.461 63.127 296.565 63.3242 296.772 63.457C296.979 63.5898 297.352 63.7168 297.891 63.8379C298.434 63.959 298.874 64.1035 299.209 64.2715C299.545 64.4395 299.793 64.6426 299.954 64.8809C300.118 65.1152 300.2 65.4023 300.2 65.7422C300.2 66.3086 299.973 66.7637 299.52 67.1074C299.067 67.4473 298.479 67.6172 297.756 67.6172C297.249 67.6172 296.799 67.5273 296.409 67.3477C296.018 67.168 295.711 66.918 295.489 66.5977C295.27 66.2734 295.161 65.9238 295.161 65.5488H296.245C296.264 65.9121 296.409 66.2012 296.678 66.416C296.952 66.627 297.311 66.7324 297.756 66.7324C298.167 66.7324 298.495 66.6504 298.741 66.4863C298.991 66.3184 299.116 66.0957 299.116 65.8184Z" fill="white"/>
</svg>
