<?xml version="1.0" encoding="utf-8"?>
<!-- Generator: Adobe Illustrator 23.0.6, SVG Export Plug-In . SVG Version: 6.00 Build 0)  -->
<svg version="1.1" id="Layer_1" xmlns="http://www.w3.org/2000/svg" xmlns:xlink="http://www.w3.org/1999/xlink" x="0px" y="0px"
	 viewBox="0 0 700 214.2" style="enable-background:new 0 0 700 214.2;" xml:space="preserve">
<style type="text/css">
	.st0{clip-path:url(#SVGID_2_);fill:#FFFFFF;}
</style>
<g>
	<defs>
		<rect id="SVGID_1_" x="4.85" y="1.48" width="690.3" height="211.23"/>
	</defs>
	<clipPath id="SVGID_2_">
		<use xlink:href="#SVGID_1_"  style="overflow:visible;"/>
	</clipPath>
	<path class="st0" d="M129.62,69l-4.96-3.04c0.68-3.11,3.83-16.07,11.73-24.59c8.11-8.75,17.81-11.61,26.39-11.69
		c4.64-0.04,8.97,0.67,12.5,1.47c0.42,0.09,0.82,0.19,1.21,0.27c3.39,0.76,6.9,1.45,9.42,0.84c1.35-0.33,2.51-0.9,3.35-1.31
		c0.54-0.26,1.09-0.54,1.21-0.47c0.01,0.01,0.04,0.04,0.05,0.1c0.12,0.55-0.4,2.28-1.95,4.43c-1,1.37-2.22,2.13-3.1,2.69
		c-0.79,0.5-1.36,0.86-1.36,1.39c0,0.26,0.26,0.74,0.74,1.61c1.52,2.74,4.67,8.44,4.3,16.45c-0.57,12.32-6.46,17.61-10.36,21.12
		l-0.47,0.43l-0.05,0.02c-2.58,3-2.26,5.73-1.51,7.52c1.13,2.69,3.64,4.88,6.87,6.02c1.85,0.66,3.86,0.88,5.33,1.05
		c1.11,0.13,2.15,0.24,2.27,0.49c0.35,0.73-0.67,1.92-2.87,3.35c-1.62,1.06-3.39,1.25-3.41,1.25c-0.05,0.01-0.09,0.04-0.1,0.09
		c-0.01,0.05,0,0.11,0.04,0.14c0.05,0.04,4.46,3.84,4.91,9.04c0.46,5.29-0.35,8.19-2.99,10.71c-2.13,2.02-5.19,2.3-6.37,2
		c-0.25-0.06-0.33-0.14-0.33-0.16c-0.17-0.66,0.83-1.35,2-2.15c0.26-0.18,0.53-0.36,0.8-0.56c1.51-1.08,2.36-2.85,1.87-3.87
		c-0.15-0.31-0.44-0.39-0.78-0.36c-0.26,0.02-0.56,0.11-0.85,0.19c-0.62,0.18-1.25,0.37-1.57,0.01c-0.36-0.4-0.23-0.71,0.09-1.37
		c0.25-0.52,0.57-1.17,0.64-2.11c0.15-1.99-0.09-7.26-2.94-7.85c-0.11-0.02-0.22,0-0.3,0.07c-0.27,0.23-0.28,0.89-0.29,1.89
		c-0.02,1.33-0.04,3.16-0.81,4.36c-1.19,1.86-3.08,3.27-3.98,3.28c-0.2,0-0.34-0.06-0.43-0.19c-0.12-0.17-0.04-0.6,0.09-1.24
		c0.31-1.53,0.89-4.37,0.05-9.64c-0.29-1.86-1.4-3.85-2.47-5.77c-1.03-1.86-2.01-3.62-2.22-5.15c-0.39-2.83-0.05-4,1.53-5.2
		c0.91-0.69,1.1-1.36,1.09-1.79c-0.01-0.42-0.24-1.22-0.99-1.52c-0.03-0.01-0.06-0.02-0.09-0.03c-0.01,0-0.02,0-0.02-0.01
		c-0.37-0.09-1.06-0.15-1.72-0.14c-2.99,0.03-9.98,0.11-14.93-6.61c-4.01-5.45-4.31-10.56-3.52-16.57c0-0.01,0-0.03,0-0.04
		c-0.02-0.1-0.45-2.36-2.35-4.07c-0.91-0.82-1.83-1.28-2.51-1.61c-0.4-0.19-0.81-0.4-0.82-0.52c0-0.01,0.02-0.08,0.12-0.19
		c0.51-0.51,2.18-1.2,4.5-0.85c1.76,0.27,2.99,0.96,3,0.97c0.05,0.03,0.12,0.02,0.16-0.03c0.05-0.06,4.59-5.42,12.21-4.83
		c4.54,0.35,8.88,4.79,9,9.62c0.12,4.86-2.14,7.37-4.1,8.04c-1.59,0.55-3.06,0.5-3.93-0.12c-0.4-0.29-0.64-0.67-0.67-1.09
		c-0.02-0.4,0.34-0.6,0.99-0.93c1.1-0.56,2.77-1.4,2.98-4.44c0.11-1.55-0.43-3.13-1.44-4.21c-0.71-0.77-1.97-1.66-4.03-1.58
		c-2.66,0.11-4.83,1.16-6.29,3.05c-1.86,2.41-2.5,6.11-1.78,10.42c1.04,6.23,7.06,10.58,13.71,9.9c3.91-0.4,7.58-2.59,10.33-6.17
		c2.61-3.39,4.13-7.73,4.18-11.91c0.12-10.43-5.93-21.19-19.72-21.71c-13.22-0.49-21.41,7.71-25.17,12.61
		c-2.33,3.04-4.79,8.85-6.57,13.56c0.79-0.15,3.36-0.49,5.63,0.63c2.32,1.14,5.06,3.95,4.59,5.15c-0.14,0.34-0.84,0.15-1.82-0.11
		c-1.34-0.36-3.24-0.25-5.4,0.03c-3.63,0.47-5.13,1.18-5.53,1.56 M188.82,139.73c-1.17,7.01-5.17,9.98-8.52,10.43
		c-0.27,0.03-0.53,0.05-0.78,0.05c-0.99,0-1.76-0.27-1.95-0.72c-0.08-0.18-0.09-0.34-0.04-0.47c0.11-0.27,0.48-0.41,1.04-0.62
		c0.67-0.24,1.58-0.58,2.54-1.34c2.85-2.26,2.7-3.28,2.59-4.03c-0.01-0.09-0.04-0.14-0.09-0.17c-0.18-0.09-0.61,0.13-1.11,0.39
		l-0.22,0.12c-0.65,0.33-1.27,0.39-1.72,0.16c-0.27-0.14-0.44-0.37-0.51-0.68c-0.07-0.33,0.31-0.66,0.77-1.08
		c0.37-0.33,0.79-0.71,1.07-1.15c1.44-2.3,1.72-5.03,0.59-7.21c-0.84-1.62-2.02-3.13-5.53-3.49c-0.07-0.01-0.15,0-0.22,0
		c0-0.01-0.09-0.01-0.13,0c-0.44,0-0.93,0.06-1.44,0.18c-3.88,0.73-6.51,3.36-8.25,6.15c-0.02,0.04-0.05,0.08-0.08,0.12
		c-2.39,3.53-2.98,8.94-3.13,10.01l0,0.03c-0.77,4.96-2.4,12.26-12.75,25.14c-1.17,1.46-2.14,3.58-1.53,5.96
		c1.07,4.13,5.04,4.49,5.02,4.92c-0.04,0.57-0.87,0.62-2.33,0.51c-1.46-0.11-1.99-0.58-1.99-0.58s-0.38,0.94,2.04,2.71
		c1.87,1.36,3.97,1.28,4.02,1.88c0.06,0.71-11.48,3.39-12.19-8.24c-0.02-0.27-0.03-0.54-0.04-0.79
		c-12.43,11.38-16.09,11.97-16.98,10.76c-0.42-0.58,0.78-0.46,3.15-3.16c2.43-2.76,2.5-3.99,2.5-3.99s-4.85,2.63-10.46,2.11
		c-5.73-0.52-10.56-4.56-10.18-6.14c0.33-1.35,3.74,0.97,7.87,0.31c3.79-0.6,4.15-2.11,4.15-2.11s-0.74-0.01-2-1.31
		c-1.27-1.29-3.1-2.37-2.06-3.47c0.59-0.63,3.46,0.68,6.31,0.68c3.59,0,5.87-0.81,5.87-0.81s-1.48-0.53-3.01-2.03
		c-1.54-1.5-1.87-3.05-1.4-3.44c0.26-0.22,0.88,1,2.87,0.95c2.33-0.05,2.62-0.58,2.62-0.58s-1-0.9-1.44-1.79
		c-0.45-0.9-1.84-3.52-0.95-4.53c0.28-0.33,2.93,2.95,6.83,3.32c6.71,0.61,14.1-4.74,14.1-4.74s-3.62,4.47-11.37,11.12
		c-4.96,4.26-11.18,7.72-10.83,8.53c0.43,0.98,5.33-0.14,13.77-7.23c2.71-2.28,4.43-3.76,8.13-8.3c6.53-8.02,8-16.84,6.7-23.9
		l-0.01,0.01c-0.52-2.77-1.25-5.28-2.13-7.38c-3.62-7.84-7.56-11.67-14.07-14.18c-5.81-2.24-10.28-0.2-12.96,1.02
		c-1.38,0.63-2.29,1.04-2.66,0.52c-1.2-1.68,1.2-3.97,3.33-5.99c2.7-2.57,4.51-3.59,4.97-3.82c-0.46-0.24-2.25-1.09-3.93-1.2
		c-0.86-0.06-1.85,0.09-2.73,0.23c-1.37,0.21-2.46,0.37-2.59-0.3c-0.28-1.37,5.25-3.8,8.28-4.79c3.05-1,5.5-1.12,5.94-1.13
		c-0.07-0.66-0.56-5.74,0-13.19c0.3-3.91,1.01-6.63,1.56-8.23c0.68-1.99,1.5-3.38,2.25-3.81c0.3-0.17,0.57-0.18,0.81-0.04
		c0.5,0.3,0.49,1.31,0.47,2.84c-0.01,0.93-0.03,2.09,0.09,3.35c0.33,3.73,1.54,5.81,2.23,6.24c0.12,0.07,0.22,0.1,0.29,0.07
		c0.27-0.12,0.34-0.58,0.45-1.27c0.14-0.9,0.34-2.12,1.07-3.64c1.22-2.53,3.56-5.55,4.38-5.31c0.21,0.06,0.29,0.31,0.27,0.73
		c-0.08,1.19-0.25,2.23-0.44,3.33c-0.38,2.26-0.8,4.83-0.57,9.6c0.34,7,3.6,7.94,4,8.02c0.21-0.36,1.8-3.12,4.06-5.52
		c0.48-0.51,0.95-1.03,1.39-1.54c1.43-1.61,2.57-2.89,3.38-2.89c0.02,0,0.05,0,0.07,0c0.23,0.02,0.41,0.15,0.56,0.39
		c0.28,0.46-0.18,1.58-0.95,3.45c-1.04,2.54-2.63,6.39-3.3,11.16c-1.29,9.07,0.01,17.85,0.03,17.93l0.09,0.64l-0.21-0.6
		c-0.01-0.02-0.79-2.15-3.98-6.84c-1.43-2.11-2.56-3.35-3.65-4.54c-1.38-1.51-2.68-2.94-4.48-5.96c-2.09-3.5-2.6-6.11-2.93-7.84
		c-0.28-1.46-0.43-2.19-1.27-2.27c-0.09-0.01-0.17,0.05-0.24,0.17c-0.71,1.15-0.32,7.47,1.61,11.25c1.04,2.03,2.27,3.63,3.7,5.48
		c1.46,1.89,3.12,4.03,5.11,7.28c3.63,5.9,5.44,10.26,6.32,12.89c0.22,0.64,0.38,1.21,0.52,1.71c0.44-0.86,1.17-1.9,1.35-2.11
		c6.43-7.08,12-7.57,15.86-6.63l0.05,0.01c2.8,0.58,5.26,2.2,6.99,4.66C188.5,132.9,189.36,136.5,188.82,139.73 M187.44,175.34
		c-0.01,0.04-0.03,0.11-0.06,0.2c-1.39,4.98-4.47,8.42-8.7,9.68c-1.32,0.4-2.53,0.58-3.67,0.58c-2.82,0-5.23-1.08-7.76-2.7
		c-0.17-0.03-1.6-0.26-3.02,0.53c-0.74,0.41-1.26,0.93-1.64,1.31c-0.34,0.34-0.55,0.55-0.75,0.49c-0.08-0.02-0.15-0.11-0.21-0.24
		c-0.21-0.53-0.2-2,0.71-3.66c0.57-1.03,1.21-1.68,1.41-1.87c-0.29-0.66-2.1-5.18,0.24-10.17c1.58-3.37,5.71-5.18,8.84-3.88
		c3.17,1.31,4.15,3.73,4.02,5.39c-0.1,1.38-0.58,2.49-1.27,2.97c-0.33,0.23-0.69,0.29-1.01,0.17c-0.4-0.15-0.42-0.59-0.44-1.16
		c-0.05-0.95-0.11-2.24-1.85-3.19c-0.88-0.48-1.89-0.54-2.79-0.17c-0.66,0.27-1.54,0.9-2.04,2.34c-0.66,1.92-0.58,3.75,0.23,5.29
		c0.99,1.89,3.05,3.3,5.82,3.96c4.07,0.98,8.32-2.06,9.69-6.9c0.4-1.44,0.62-3.16,0.08-4.94c-1.07-3.57-3.53-6.86-9.44-9.71
		c-2.04-0.98-6.19-2.82-7.84-3.56c0.9-2.6,1.01-3.43,1.31-4.32c0.54-0.88,2.07-2.29,3.52-2.64c1.71-0.4,3.69,0.45,3.62,0.77
		c-0.05,0.31-2.28,0.85-3.54,3.76c0.5,0.21,4.67,1.35,8.27,3.68c6.04,3.9,7.69,8.06,8.19,9.87
		C188.24,170.29,188.1,173.09,187.44,175.34 M128.96,79.66c-3.63-3.36-6.6-4.25-6.6-4.25v-6.33c1.72,0.85,5.74,2.97,8.06,4.9
		c2.27,1.88,4,3.77,5.4,5.33l-0.98,6.41C133.23,83.89,131.07,81.61,128.96,79.66 M124.33,91.2c-1.06-7.26-0.61-10.67-0.61-10.67
		c1.62,0.57,4.37,3.29,5.33,4.32c0,0-0.2,0.96,0.49,5.46c0.51,3.36,1.52,6.48,1.89,7.77l-5.08,2.38
		C125.87,98.79,124.9,95.12,124.33,91.2 M128.22,134.83c0.59,4.81,4.6,9.41,10.29,8.78c2.44-0.27,4.15-1.38,5.33-2.62l-0.39-0.31
		l0.09-0.1c-0.76-0.7-3.42-3.2-5.6-5.97c-2.12-2.7-3.16-4.17-3.35-4.45l-0.62-0.86c0.05-0.04,0.75-0.56,2.87-0.48
		c2.32,0.09,4.57,1.9,5.21,2.45l0.01,0.01c0.01,0.01,1.07,1.2,4.55,4.83c4.12,4.3,7.11,6.35,7.58,6.66
		c0.01,1.24-0.34,3.66-0.79,5.35l-0.02-0.01c-1.89-1.01-4.38-3.09-5.57-4.09c-0.17-0.14-0.3-0.26-0.42-0.35
		c-1.5,1.82-3.75,3.66-7.09,4.56c-0.79,0.2-1.61,0.3-2.46,0.28c-7.39-0.21-12.32-5.68-13.53-11.08c-0.46-2.03-0.28-4.56-0.2-6.31
		c0.08-1.54,0.14-2.88-0.19-3.87c-0.39-1.13-0.93-1.87-1.29-2.36c-0.35-0.47-0.58-0.78-0.35-1.05c0.39-0.47,1.68-0.19,2.87,0.63
		c0.76,0.52,1.09,1.09,1.21,1.41c0.71-1.07,4.15-5.73,10.04-5.95c2.01-0.07,3.8,0.36,5.19,1.27c1.12,0.73,1.93,1.73,2.22,2.76
		c0.23,0.83,0.24,1.48-0.33,1.76c-0.28,0.14-0.92-0.13-1.77-0.55c-1.24-0.61-3.19-1.28-5.5-1c-1.83,0.22-4.47,1.49-6.22,3.83
		C128.51,129.92,127.9,132.29,128.22,134.83 M84.74,187.31c-7.3,1.25-21.18-0.7-21.18-0.7l-7.15-23.14c0,0,7.42,7.01,11.33,10.1
		c3.91,3.09,7.55,4.77,13.09,4.77c5.53,0,9.3-1.4,13.35-5.75c4.05-4.34,5.6-9.96,6.61-16.55c0.72-4.76,0.4-17.95,0.4-21.04
		l1.02-71.68c0,0,0.51-15.47-0.61-19.36c-1.11-3.9-3.44-6.73-4.85-8.2c-3.12-3.24-9.71-4.32-9.71-4.32
		c-1.92-0.31-2.32-1.25-2.17-2.18c0.2-1.37,1.4-1.59,1.4-1.59l46.8,0.1c0,0,1.16,0.13,1.37,1.5c0.14,0.93-0.25,1.87-2.18,2.18
		c0,0-6.6,1.08-9.71,4.32c-1.42,1.47-3.74,4.31-4.86,8.2c-1.11,3.89-0.6,19.36-0.6,19.36v71.85c0,0,0.17,13.85-1.62,21.15
		c-1.25,5.1-4.15,15.08-11.83,22.02C96.67,184.62,91.28,186.19,84.74,187.31 M51.2,174.66c-2.55,5.4-6.81,10.13-7.59,9.38
		c-0.66-0.64,0.19-1.19,0.6-2.78c0.43-1.64,0.54-1.97,0.54-1.97s-1.16,1.64-5.22,4.18c-4.05,2.54-4.81,2.73-5.47,1.72
		c-0.43-0.65,0.6-1.35,1.57-3.05c0.93-1.66,0.66-1.56,0.66-1.56s-3.46-0.32-6.29-1.58c-2.84-1.26-5.83-4.18-5.74-4.78
		c0.12-0.79,1.28-1.21,3.43-2.28c2.27-1.12,3.85-2.6,3.85-2.6s-1.53-0.37-2.37-0.76c-1.37-0.65-2.74-1.32-1.88-2.15
		c0.75-0.72,4.41,1.75,9.99-3.51c4.92-4.65,4.95-11.5,4.95-11.5s2.41,7.97-0.78,14.33c-3.91,7.81-11.22,7.86-10.43,9.49
		c0.99,2.02,9.95,0.19,13.8-9.16c3.23-7.83-0.16-17.78-2.63-23.67c-0.7-1.68-1.64-3.97-2.24-5.73c2.25,1.01,4.05,1.52,5.89,1.73
		l0.01-0.02c0.01,0.01,0.01,0.02,0.02,0.03c0.05,0,0.31,0.5,0.31,0.5c2.17,3.47,5.55,4.69,7.32,5.37c1.7,0.65,3.53,0.96,5.35,0.96
		c1.58,0,3.19-0.24,4.69-0.81c0.95-0.36,1.91-0.87,2.62-1.63c2.15-2.31,2.72-9.52,3.69-10.05c0.45-0.25,1.54,1.52,1.96,2.85
		c0.42,1.34,0.21,2.66,1.03,2.98c0.58,0.22,0.94-0.43,2.17-1.87c1.73-2.04,1.48-2.85,2.35-2.52c0.87,0.33-0.06,4.78-0.48,7.2
		c-0.43,2.43-1.6,5.95-1.6,5.95s2.89-1.88,5.58-3.09c7.52-3.38,10.47-2.33,10.52-1.42c0.05,0.92-1.72,1.08-3.68,3.4
		c-1.42,1.68-1.07,2.11-1.07,2.11s1.13,0.03,4.27-0.88c2.24-0.65,4.16-1.67,4.8-0.74c0.64,0.94-2.28,4.86-6.78,7.98
		c-4.51,3.12-8.17,4.28-8.17,4.28s0.86,0.92,3.09,1.31c2.22,0.39,3.11,0.06,3.32,0.7c0.26,0.87-2.21,1.61-6.42,2.05
		c-5.96,0.62-9.06-1.99-9.06-1.99s0.77,2.16-0.13,4.36c-0.91,2.21-1.11,4.27-1.99,4.15c-0.89-0.13,0.18-2.21-1.5-4.3
		c-1.81-2.24-3.85-2.7-6.92-5.08c-2.99-2.3-3.09-4.1-3.09-4.1s5.21,1.96,13.77,0.6c8.22-1.3,10.74-3.77,10.14-4.67
		c-0.55-0.83-1.89,0.24-5.78,1.11c-4.53,1.02-10.66,0.75-17.44-0.39c-2.41-0.4-5.64-1.53-8.58-3.48c1.14,2.26,3.05,6.38,3.47,9.3
		C54.38,163.59,53.76,169.25,51.2,174.66 M45.9,101.05c0.34-2.24,1.61-4.59,2.39-5.62c2.97-0.55,4.9,1.11,5.16,1.36
		c-1.63,3.14-2.67,6.61-3.57,10.12C48.8,106.44,47.23,104.9,45.9,101.05 M46.64,124.59c-1.54-0.14-5.45-2.78-5.67-3.44
		c-0.03-1.38,0.35-4.43,0.87-6.21c1.95,3.4,5.18,4.87,5.18,4.87C46.47,122.06,46.64,124.59,46.64,124.59 M30.61,94.44
		c0.39-1.07,0.73-1.84,1.03-2.52c0.63-1.45,1.01-2.32,1.16-4.36c0.18-2.34-0.56-4.13-1-4.6c0.58,0.07,2.42,0.86,3.14,2.37
		c0.61,1.27,1.49,4.53,1.36,5.06c-0.03,0.13,0.04,0.19,0.07,0.21c0.12,0.08,0.22,0.01,0.64-0.31c1.25-0.94,5.07-3.81,11.77-3.83
		h0.08c12.37,0,17.8,11.46,17.86,11.57l0.03,0.06l0.06,0.02c0.07,0.02,1.7,0.47,4.98-0.95c1.28-0.56,2.06-1.24,2.82-1.9
		c1.24-1.09,2.31-2.04,5.35-2.13c3.04-0.11,5.31,1.62,5.72,2.83c0.1,0.29,0.13,0.68-0.24,0.94c-0.45,0.32-0.54,0.28-0.81,0.15
		c-0.42-0.2-1.12-0.54-3.39-0.17c-1.88,0.3-2.77,2.04-3.7,3.89c-1.01,1.99-2.05,4.05-4.44,4.69c-2.18,0.59-4.75-0.9-5.21-1.67
		c-0.13-0.21-0.33-0.48-0.58-0.44c-0.24,0.05-0.31,0.38-0.32,0.47c0,0.02-0.07,1.91-1.25,5.2c-1.09,3.03-6.07,10.32-15.9,7.66
		c-6.01-1.62-8.35-7.26-8.1-10.74c0.08-1.15,0.46-1.9,0.97-1.96c0.44-0.05,0.81,0.27,0.92,0.6c0.45,1.32,0.91,2.59,1.61,3.7
		c0.98,1.54,2.79,3.36,4.93,3.83c4.87,1.07,7.88-1.43,8.43-1.94c1.87-1.72,2.88-4.6,2.72-7.69c-0.21-3.94-2.31-6.47-4.03-7.89
		c-2.18-1.81-5.02-2.87-7.77-2.91c-0.07,0-0.14,0-0.21,0c-3.58,0-7.23,1.44-10.06,3.98c-3.56,3.2-5.67,7.97-6.09,13.8
		c-0.36,4.98,1.67,10.53,5.32,14.49c2.84,3.08,6.36,4.8,9.9,4.83c0.07,0,0.13,0,0.2,0c9.32,0,15.35-5.76,21.73-11.84
		c5.97-5.7,12.14-11.59,21.79-14.26c0.71-0.2,4.04-0.51,4.75-0.54l-0.17,5.27c-5.42,1.01-12.95,4.49-12.58,8.25
		c0.37,3.72,2.75,5.71,3.9,6.66c0.26,0.21,0.52,0.43,0.55,0.48c-0.01,0.03-0.12,0.13-0.46,0.26c-1.05,0.38-3.41,0.66-5.3-0.22
		c-2.49-1.16-4.95-5.24-4.98-5.28l-0.1-0.17l-0.13,0.14c-0.07,0.08-7.47,7.8-11.48,10.74c-2.6,1.9-9.5,6.96-17.65,6.59
		c-5.63-0.25-10.84-2.82-14.68-7.24c-4.03-4.63-6.2-11.02-6.11-17.97C27.72,103.35,28.42,100.47,30.61,94.44 M48.62,27.85
		c0.06-0.01,5.82-0.51,11.3,1.7c2.41,0.97,4.14,2.2,5.67,3.28l0.04,0.02c2.26,1.6,4.05,2.86,6.59,2.07c2.9-0.89,3.47-3.15,3.84-4.67
		c0.09-0.36,0.26-1.02,0.38-1.08c0.13-0.04,0.65,0.15,1.11,0.85c0.53,0.81,1.98,3.87-1.85,9.39c-2.13,3.05-5.55,3.68-5.69,3.7
		c-0.14,0.02-0.27,0.11-0.36,0.24c-0.08,0.13-0.1,0.28-0.06,0.42c0.2,0.77,0.24,1.34,0.28,1.91c0.14,1.92-0.03,3.73-1.32,6.82
		c-1.95,4.7-5.87,7.63-11.04,8.24c-5.02,0.59-9.09-2.22-10.52-5.32c-1.33-2.86-1.4-6.2-0.2-9.19c0.3-0.74,0.8-1.34,1.23-1.45
		c0.19-0.05,0.35,0,0.53,0.14c0.42,0.35,0.45,1.21,0.49,2.33c0.04,1.13,0.09,2.53,0.6,4.03c0.78,2.3,3.29,4.48,6.6,4.16
		c4.95-0.46,7.97-3.97,8.07-9.39c0.11-5.7-3.54-12.44-14.17-12.7c-0.14,0-0.28,0-0.41,0c-4.02,0-7.7,1.55-10.64,4.49
		c-3.44,3.44-5.62,8.67-5.7,13.65c-0.16,9.72,4.88,15.37,9.14,18.41c4.29,3.05,11.02,3.25,19.45,0.57c2.87-0.91,5.97-2.2,8.97-3.45
		l0.03-0.02c2.54-1.05,5.16-2.14,7.66-3.02c1.48-0.52,3.05-0.93,4.67-1.22l0.24-0.04l-0.15-0.19c-0.66-0.85-1.49-2-2.54-3.45
		c-2.16-3.02-2.79-8.62-2.08-9.79c0.31-0.51,0.66-0.59,0.8-0.59c0.13-0.01,0.21,0.04,0.22,0.04h0c0.01,0.04,0.01,0.34,0.01,0.39
		c-0.02,0.28,0.01,1.56,0.6,2.24c0.77,0.89,1.81,1.05,2.25,0.83c0.16-0.09,0.27-0.2,0.32-0.36c0.14-0.47,0.9-2.9,2.22-4.83
		c1.1-1.61,4.53-4.11,6.5-4.11c0.05,0,0.11,0,0.16,0.01c0.54,0.04,0.9,0.28,1.12,0.72c0.27,0.55-0.58,1.45-0.86,1.74
		c-1.76,1.84-3.8,4.54-3.96,9.08c-0.08,2.12,0.53,3.88,1.8,5.23c2.41,2.56,6.51,2.86,7.32,2.88v4.66c-0.13-0.01-0.25-0.01-0.38-0.01
		c-4.1,0-7.32,4.93-8.44,9.99c-0.91,4.11-0.11,9.94,0.24,11.66c0.32,1.6,0.04,1.95-0.06,2.01c-0.05,0.04-0.12,0.07-0.27,0.04
		c-0.86-0.19-2.43-1.99-4.2-4.83c-1.3-2.09-0.93-4.67-0.73-6.06c0.12-0.79,0.16-1.11-0.13-1.33l-0.06-0.04
		c-0.18-0.14-0.43-0.31-0.75-0.32c-0.01,0-0.03,0-0.04,0c-0.4,0-0.82,0.25-1.28,0.75c-0.37,0.41-0.58,0.73-0.72,0.94
		c-0.2,0.3-0.2,0.3-0.76,0.1c-0.02-0.01-0.06-0.02-0.1-0.13c-0.35-1.01,0.77-4.6,2.23-7.12c1.17-2.02,2.41-3.46,4.15-4.84l0.51-0.4
		l-0.63,0.14c-5.91,1.34-11.85,3.71-15.51,6.17c-4.67,3.14-8.45,6.87-11.23,11.1c-0.51-0.31-0.96-0.55-2.18-1.11
		c-0.75-0.35-1.89-0.72-2.76-0.82c1.17-1.55,3.13-3.68,3.94-4.55l0.07-0.08c0.11-0.19,0.09-0.43-0.05-0.61
		c-0.14-0.18-0.38-0.24-0.59-0.16c-0.22,0.09-5.48,2.11-14.8-1.38c-7.54-2.83-15.44-11-14.98-25.48
		C28.26,36.22,38.59,28.74,48.62,27.85 M16.13,199.38h184.32V14.82H16.13V199.38z"/>
	<path class="st0" d="M236.63,149.31c-2.92,4.27-5.68,8.3-11.08,8.3c-3.2,0-6.62-1.88-6.62-7.16c0-4.55,2.34-7.4,6.78-8.25
		c0.1-0.02,0.17-0.1,0.17-0.2v-0.36c0-0.06-0.02-0.11-0.07-0.15c-0.04-0.04-0.1-0.06-0.15-0.05c-0.9,0.06-2.41,0.06-3.31,0.06
		c-1.52,0-2.6-0.05-3.96-0.18c-0.06-0.01-0.13,0.02-0.17,0.06c-0.04,0.05-0.06,0.11-0.05,0.17c0.06,0.35,0.06,0.63,0.06,0.99
		c0,1.04-0.2,2.08-0.41,3.17c-0.26,1.37-0.56,2.92-0.56,4.86c0,6.7,4.53,11.37,11.01,11.37c6.83,0,10.09-4.8,13.24-9.44
		c3.03-4.46,5.89-8.67,11.69-8.67c5.49,0,7.95,4.02,7.95,8.01c0,4.61-2.54,9.27-7.4,9.27c-0.41,0-0.84-0.05-1.29-0.1l-0.19-0.02
		c-0.06-0.01-0.12,0.01-0.16,0.05c-0.04,0.04-0.07,0.09-0.07,0.15v0.3c0,0.08,0.05,0.15,0.12,0.19c1.54,0.69,3.36,0.75,3.89,0.75
		c0.78,0,1.5-0.08,2.2-0.16c0.67-0.07,1.3-0.15,1.97-0.15c0.53,0,1.25,0,1.53,0.06c0.07,0.01,0.13-0.01,0.18-0.05
		c0.05-0.05,0.07-0.12,0.06-0.18c-0.06-0.35-0.06-0.51-0.06-0.87c0-1.31,0.24-2.4,0.5-3.55c0.3-1.37,0.65-2.93,0.65-5.14
		c0-7.52-5.12-12.76-12.46-12.76C243.27,139.61,239.89,144.54,236.63,149.31"/>
	<path class="st0" d="M240.67,66.73c12.69,0,20.58,6.29,20.58,16.42c0,10.02-7.83,15.99-20.95,15.99c-9.8,0-21.25-4.19-21.25-15.99
		C219.05,75.58,224.71,66.73,240.67,66.73 M217.29,82.66c0,14.13,11.79,22.58,23.19,22.58c11.1,0,22.58-8.26,22.58-22.09
		c0-12.59-10-22.46-22.76-22.46C227.4,60.7,217.29,70.35,217.29,82.66"/>
	<path class="st0" d="M230.67,36.04c7.01,0,10.28,3.58,10.28,11.27v2.82H219.6c-0.48-1.8-0.57-3-0.57-4.33
		C219.02,39.87,223.6,36.04,230.67,36.04 M262.31,23.59c-1.26,3.67-8.85,7.91-14.4,11.01c-3.16,1.77-5.71,3.19-6.68,4.21
		c-2.05-5.32-6.28-8.48-11.37-8.48c-7.71,0-12.68,5.92-12.68,15.09c0,0.64,0.03,1.69,0.06,2.81c0.03,1.28,0.07,2.73,0.07,3.75
		c0,2.76,0,3.9-0.13,6.04c0,0.05,0.02,0.11,0.06,0.15c0.04,0.04,0.09,0.06,0.15,0.06h0.31c0.1,0,0.19-0.07,0.2-0.17
		c0.33-2.14,1.17-2.85,5.48-2.85h33.51c4.99,0,5.13,0.81,5.48,2.98c0.02,0.1,0.1,0.17,0.2,0.17h0.31c0.06,0,0.11-0.02,0.15-0.06
		c0.04-0.04,0.07-0.09,0.06-0.15c-0.06-1.27-0.13-3.05-0.13-5.48c0-2.59,0.09-4.69,0.13-5.48c0.01-0.06-0.02-0.11-0.06-0.15
		c-0.04-0.04-0.09-0.06-0.15-0.06h-0.31c-0.1,0-0.19,0.07-0.2,0.17c-0.35,2.17-0.48,2.98-5.48,2.98h-14.21V46.3
		c0-0.69-0.08-1.56-0.23-2.6c1.05-1.11,3.48-2.39,4.94-3.17c0.31-0.16,0.58-0.31,0.8-0.43c13.87-7.38,14.7-8.22,14.96-14.87
		c0-0.76,0-1.02-0.06-1.6c-0.01-0.1-0.1-0.18-0.2-0.18h-0.37C262.41,23.46,262.33,23.51,262.31,23.59"/>
	<path class="st0" d="M217.49,103.75c-0.06-0.02-0.13-0.01-0.18,0.03c-0.05,0.04-0.09,0.1-0.08,0.17c0.08,4.17,0.32,18.16-0.01,32.4
		c-0.01,0.09,0.06,0.18,0.16,0.2c1.14,0.28,2.12,0.56,3.06,0.83c1.16,0.33,2.25,0.65,3.4,0.88c0.06,0.01,0.12,0,0.17-0.04
		c0.05-0.04,0.07-0.1,0.07-0.16v-0.31c0-0.08-0.05-0.15-0.12-0.19c-3.85-1.8-3.87-4.71-3.87-14.27h36.79c5,0,5.13,0.8,5.47,2.95
		c0.02,0.1,0.1,0.17,0.2,0.17h0.31c0.06,0,0.11-0.02,0.15-0.06c0.04-0.04,0.06-0.09,0.06-0.15c-0.06-1.26-0.12-3.02-0.12-5.42
		c0-2.55,0.09-4.64,0.12-5.42v-0.01c0-0.05-0.02-0.1-0.06-0.14c-0.04-0.04-0.09-0.06-0.15-0.06h-0.31c-0.1,0-0.19,0.07-0.2,0.17
		c-0.35,2.14-0.48,2.95-5.47,2.95h-36.79c0.01-10.97,0.43-12.44,2.1-12.44c0.3,0,0.67,0.06,0.89,0.12c0.06,0.02,0.13,0,0.18-0.04
		c0.05-0.04,0.08-0.1,0.08-0.16v-0.37c0-0.1-0.07-0.18-0.17-0.2C222.17,104.99,219.17,104.29,217.49,103.75"/>
	<path class="st0" d="M217.22,166.11c0.06,1.21,0.12,3.63,0.12,5.72c0,2.19-0.06,4.65-0.12,5.96c-0.01,0.05,0.02,0.11,0.06,0.15
		c0.04,0.04,0.09,0.06,0.15,0.06h0.3c0.1,0,0.19-0.07,0.2-0.17c0.34-2.16,0.57-3.58,5.28-3.58h27.2c5.13,0,10.66,2.45,10.66,6.41
		c0,0.72-0.05,1.41-0.16,2.08c-0.68,2.76-2.6,4.46-3.98,5.5c-0.2,0.15-0.39,0.29-0.58,0.42c-1.67,1.14-3.16,1.66-3.22,1.68
		c-0.13,0.05-0.21,0.18-0.18,0.33c0.03,0.14,0.16,0.23,0.31,0.22l7.15-0.92c0.09,0,0.18-0.05,0.23-0.13
		c1.67-2.57,2.17-5.78,2.22-6.38l0.01,0c0.16-1.02,0.19-1.85,0.19-2.38c0-0.4-0.02-0.63-0.02-0.64c0-6.59-5.34-11.01-13.29-11.01
		h-26.52c-4.57,0-4.8-1.08-5.26-3.24l-0.02-0.11c-0.02-0.09-0.1-0.16-0.2-0.16h-0.3c-0.06,0-0.11,0.02-0.15,0.06
		C217.24,166,217.22,166.06,217.22,166.11"/>
	<polygon class="st0" points="282.46,191.02 282.46,23.16 311.02,23.16 311.02,162.39 372.92,162.39 372.92,191.02 	"/>
	<path class="st0" d="M446.26,132.5c-13.68,1.87-23.65,4.84-29.93,8.91c-6.28,4.07-9.42,9.58-9.42,16.53c0,4.11,1.12,7.29,3.36,9.53
		c2.24,2.24,5.42,3.36,9.53,3.36c4.48,0,8.91-1.04,13.29-3.14c4.37-2.09,8.76-5.27,13.17-9.53V132.5z M449.4,191.02l-2.47-10.54
		c-5.46,3.96-11.17,6.93-17.15,8.91c-5.98,1.98-12.22,2.97-18.72,2.97c-10.02,0-17.88-2.84-23.6-8.52
		c-5.72-5.68-8.58-13.53-8.58-23.54c0-13.15,5.51-23.52,16.53-31.11c11.02-7.58,28.27-12.84,51.74-15.75v-9.42
		c0-4.41-1.48-7.81-4.43-10.2c-2.95-2.39-7.16-3.59-12.61-3.59c-5.46,0-10.41,1.16-14.85,3.48c-4.45,2.32-8.28,5.75-11.49,10.31
		l-19.28-12.22c5.01-7.77,11.36-13.62,19.06-17.55c7.7-3.92,16.7-5.89,27.02-5.89c13.9,0,24.74,3.14,32.51,9.42
		c7.77,6.28,11.66,15.02,11.66,26.23v70.74c0,1.87,0.15,4.13,0.45,6.78c0.3,2.65,0.75,5.81,1.35,9.47H449.4z"/>
	<path class="st0" d="M516.31,159.07c3.74,3.66,7.3,6.3,10.71,7.9c3.4,1.61,6.93,2.41,10.59,2.41c8.15,0,14.44-3.34,18.89-10.03
		c4.45-6.69,6.67-16.2,6.67-28.53c0-12.25-2.24-21.82-6.73-28.7c-4.48-6.87-10.69-10.31-18.61-10.31c-3.59,0-7.08,0.8-10.48,2.41
		c-3.4,1.61-7.08,4.17-11.04,7.68V159.07z M487.16,191.02c0.45-6.35,0.78-11.88,1.01-16.59c0.22-4.71,0.34-8.52,0.34-11.44V23.16
		h27.8v59.01c4.26-4.86,8.71-8.37,13.34-10.54c4.63-2.17,9.98-3.25,16.03-3.25c13.53,0,24.57,5.76,33.12,17.26
		c8.56,11.51,12.84,26.57,12.84,45.18c0,18.54-4.36,33.58-13.06,45.12c-8.71,11.55-19.97,17.32-33.8,17.32
		c-6.42,0-12.24-1.2-17.43-3.59c-5.2-2.39-10.26-6.24-15.19-11.55l-3.03,12.89H487.16z"/>
	<path class="st0" d="M594.75,169.16l19.28-15.13c4.56,5.91,9.08,10.26,13.57,13.06c4.48,2.8,9.15,4.21,14.01,4.21
		c5.16,0,9.23-1.2,12.22-3.59c2.99-2.39,4.48-5.64,4.48-9.75c0-6.05-6.31-11.4-18.94-16.03c-1.35-0.52-2.36-0.93-3.03-1.23
		c-15.02-5.68-25.05-11.17-30.1-16.48c-5.04-5.31-7.56-12.18-7.56-20.63c0-10.32,3.83-18.76,11.49-25.34
		c7.66-6.58,17.62-9.86,29.88-9.86c8.22,0,15.64,1.5,22.25,4.48c6.61,2.99,12.72,7.62,18.33,13.9l-17.93,15.58
		c-3.89-4.11-7.76-7.16-11.6-9.14c-3.85-1.98-7.79-2.97-11.83-2.97c-4.78,0-8.53,1.06-11.27,3.19c-2.73,2.13-4.09,5.03-4.09,8.69
		c0,4.49,6.31,9.08,18.94,13.79c3.36,1.27,6.01,2.28,7.96,3.03c12.78,4.93,21.48,10.15,26.12,15.64c4.63,5.49,6.95,12.84,6.95,22.03
		c0,11.14-3.83,20.09-11.49,26.85c-7.66,6.76-17.84,10.15-30.55,10.15c-9.94,0-18.68-1.96-26.23-5.89
		C608.05,183.79,601.1,177.61,594.75,169.16"/>
</g>
</svg>
