<?xml version="1.0" encoding="utf-8"?>
<!-- Generator: Adobe Illustrator 25.2.0, SVG Export Plug-In . SVG Version: 6.00 Build 0)  -->
<svg version="1.1" id="Layer_1" xmlns="http://www.w3.org/2000/svg" xmlns:xlink="http://www.w3.org/1999/xlink" x="0px" y="0px"
	 viewBox="0 0 290.3 61" style="enable-background:new 0 0 290.3 61;" xml:space="preserve">
<style type="text/css">
	.st0{fill:#FFFFFF;}
	.st1{fill-rule:evenodd;clip-rule:evenodd;fill:#FFFFFF;}
	.st2{fill:#FF0000;}
</style>
<path class="st0" d="M68.5,14c0,0.6,0,1-0.1,1.2c-1,0.1-1.7,0.3-2.1,0.6c-0.4,0.3-0.6,0.8-0.6,1.5V40c0,2.6-0.6,4.7-1.8,6.2
	c-1.2,1.5-3,2.7-5.5,3.4c-0.4-0.6-0.5-0.9-0.6-0.9c2-1.1,3.2-2.3,3.8-3.6c0.6-1.3,0.9-3,0.9-5.1V15.9c-0.9-0.4-1.9-0.6-3-0.7
	c0-0.6,0-1,0.1-1.2H68.5z"/>
<path class="st0" d="M87.9,24.4v13.9c1.2,0.1,2.2,0.1,2.9,0.1c0,0.3,0,0.6,0,0.7s0,0.3,0,0.4c-1.7,0.8-3.6,1.3-5.7,1.6
	c-0.2-1.1-0.3-2.6-0.4-4.5c-1.8,3.2-4,4.8-6.8,4.8c-1.7,0-3.1-0.6-4.2-1.8c-1.1-1.2-1.7-2.8-1.7-5V23.3c-0.4,0-0.8,0-1.2,0
	c-0.4,0-0.9,0-1.4,0c0-0.3,0.1-0.7,0.2-1.2c2.1-0.9,4-1.5,5.6-1.6v13.8c0,1.4,0.3,2.6,1,3.4c0.7,0.8,1.6,1.2,2.7,1.2
	s2.2-0.4,3.2-1.1c1-0.8,1.9-1.9,2.6-3.3v-9.7c0-1.4-0.4-2.3-1.2-2.9c0.1-0.3,0.1-0.5,0.2-0.7c1.1-0.5,2.4-0.7,3.9-0.7
	c0.1,0,0.3,0,0.5,0C88,21.6,87.9,22.9,87.9,24.4z"/>
<path class="st0" d="M111.7,26.9v12c0.9,0.4,2,0.6,3.1,0.7c0,0.4,0,0.9-0.1,1.3h-9c0-0.4,0-0.8,0-1.3c1.1-0.1,1.8-0.3,2.2-0.6
	c0.4-0.3,0.6-0.8,0.6-1.5V27.1c0-1.4-0.3-2.5-1-3.3c-0.7-0.8-1.6-1.1-2.8-1.1c-2.6,0-4.5,1.5-5.7,4.6v11.6c0.8,0.4,1.8,0.6,3,0.7
	c0,0.5,0,1-0.1,1.3h-9c-0.1-0.4,0-0.9,0.1-1.3c1.1-0.1,1.8-0.3,2.2-0.6c0.4-0.3,0.7-0.8,0.7-1.5v-14c-0.9,0-1.5,0-2,0
	c-0.5,0-0.8,0-1.1,0c0-0.4,0.1-0.7,0.2-1.1c1.9-0.8,3.8-1.3,5.7-1.6c0.2,1.1,0.3,2.6,0.4,4.3c1.5-3.1,3.8-4.6,6.8-4.6
	c1.7,0,3.1,0.6,4.2,1.7C111.2,23.1,111.7,24.7,111.7,26.9z"/>
<path class="st0" d="M133.2,38.2c-2.3,2.1-4.8,3.2-7.4,3.2c-2.6,0-4.8-0.9-6.6-2.8c-1.7-1.9-2.6-4.4-2.6-7.5c0-3.2,1-5.7,2.9-7.7
	c1.9-2,4.4-3,7.3-3c2.3,0,4.3,0.6,5.9,1.7c0,1.5-0.1,3.1-0.4,4.8l-0.9-0.1c0-1.4-0.5-2.5-1.4-3.3c-0.9-0.8-2.1-1.2-3.5-1.2
	c-2,0-3.5,0.8-4.8,2.4c-1.2,1.6-1.8,3.7-1.8,6.3s0.6,4.7,1.7,6.2c1.2,1.5,2.7,2.3,4.7,2.3c2,0,4-0.6,6.1-1.8L133.2,38.2z"/>
<path class="st0" d="M142.6,41.4c-1.4,0-2.6-0.4-3.5-1.3c-0.9-0.9-1.4-2.2-1.4-3.9V22.9c-0.8-0.1-1.8-0.2-2.9-0.2c0-0.1,0-0.2,0-0.4
	c0-0.2,0-0.4,0-0.6c1-0.4,2-0.6,2.8-0.7l2.5-5.5l0.7,0.2v5.2c2.2-0.1,4.3-0.2,6.2-0.3c0,0.8-0.1,1.5-0.4,2.1H141v12.9
	c0,2.1,0.9,3.1,2.6,3.1c1.4,0,2.8-0.5,4.1-1.6l0.5,0.6C146.6,40.2,144.8,41.4,142.6,41.4z"/>
<path class="st0" d="M167.5,24.4v13.9c1.2,0.1,2.2,0.1,2.9,0.1c0,0.3,0,0.6,0,0.7s0,0.3,0,0.4c-1.7,0.8-3.6,1.3-5.7,1.6
	c-0.2-1.1-0.3-2.6-0.4-4.5c-1.8,3.2-4,4.8-6.8,4.8c-1.7,0-3.1-0.6-4.2-1.8c-1.1-1.2-1.7-2.8-1.7-5V23.3c-0.4,0-0.8,0-1.2,0
	c-0.4,0-0.9,0-1.4,0c0-0.3,0.1-0.7,0.2-1.2c2.1-0.9,4-1.5,5.6-1.6v13.8c0,1.4,0.3,2.6,1,3.4c0.7,0.8,1.6,1.2,2.7,1.2
	c1.1,0,2.2-0.4,3.2-1.1c1-0.8,1.9-1.9,2.6-3.3v-9.7c0-1.4-0.4-2.3-1.2-2.9c0.1-0.3,0.1-0.5,0.2-0.7c1.1-0.5,2.4-0.7,3.9-0.7
	c0.1,0,0.3,0,0.5,0C167.6,21.6,167.5,22.9,167.5,24.4z"/>
<path class="st0" d="M178.6,26.1v0.3c0.7-1.8,1.8-3.3,3.2-4.4c1.4-1.1,2.9-1.7,4.5-1.7c0.1,0.4,0.2,0.8,0.2,1.3
	c0,0.5-0.1,1.1-0.3,1.8c-2.4,0-4.4,0.8-6,2.4c-0.9,1-1.4,2.2-1.6,3.6v9.2c1.3,0.5,2.9,0.8,4.6,0.9c0,0.6-0.1,1-0.2,1.3h-10.6
	c0-0.4,0-0.8,0-1.3c1.1-0.1,1.9-0.4,2.3-0.7c0.4-0.3,0.7-0.8,0.7-1.5V23.4c-0.8,0-1.5,0-2,0c-0.5,0-0.8,0-1.1,0
	c0-0.4,0.1-0.7,0.2-1.1c1.9-0.8,3.8-1.3,5.7-1.6C178.5,22.1,178.6,23.9,178.6,26.1z"/>
<path class="st0" d="M201.2,27.6c0-1.9-0.5-3.3-1.4-4.2c-0.9-0.9-1.9-1.4-3.2-1.4c-1.2,0-2.4,0.5-3.5,1.5c-1.1,1-1.8,2.5-2.1,4.5
	l5.1-0.4L201.2,27.6z M190.9,30.5c0,2.7,0.6,4.8,1.7,6.3c1.1,1.5,2.8,2.2,5,2.2c2.2,0,4.3-0.7,6.4-2.1l0.4,0.8
	c-2.1,2.4-4.8,3.7-7.9,3.7c-2.2,0-4.2-0.8-6-2.4c-0.9-0.8-1.6-1.9-2.2-3.2c-0.5-1.3-0.8-2.9-0.8-4.5c0-3.4,1-6.1,3-8
	c2-1.9,4.1-2.9,6.4-2.9c2.3,0,4.1,0.7,5.5,2.2c1.4,1.4,2.2,3.5,2.2,6.2c-0.2,0.3-0.3,0.6-0.5,0.8h-13.2
	C190.9,29.7,190.9,30,190.9,30.5z"/>
<path class="st1" d="M19.7,1v38.6H0l0,8.6h28.3V1h12.9v60H0V1H19.7z"/>
<rect x="220.8" y="18.6" class="st2" width="68.9" height="25.5"/>
<g>
	<path class="st0" d="M233,38V24.5h4.4c1.5,0,2.6,0.3,3.3,0.9c0.7,0.6,1.1,1.5,1.1,2.7c0,0.6-0.2,1.2-0.5,1.7
		c-0.4,0.5-0.8,0.9-1.5,1.1c0.7,0.2,1.3,0.6,1.7,1.2c0.4,0.6,0.6,1.3,0.6,2c0,1.2-0.4,2.2-1.2,2.9c-0.8,0.7-1.9,1-3.3,1H233z
		 M234.8,30.3h2.7c0.8,0,1.4-0.2,1.9-0.6c0.5-0.4,0.7-0.9,0.7-1.6c0-0.7-0.2-1.3-0.6-1.6s-1.1-0.5-2-0.5h-2.6V30.3z M234.8,31.7v4.9
		h2.9c0.8,0,1.5-0.2,2-0.6c0.5-0.4,0.7-1,0.7-1.8c0-1.6-0.9-2.4-2.7-2.4H234.8z"/>
	<path class="st0" d="M252.5,31.8h-5.9v4.8h6.8V38h-8.6V24.5h8.5V26h-6.7v4.4h5.9V31.8z"/>
	<path class="st0" d="M265.2,26h-4.3V38h-1.8V26h-4.3v-1.5h10.4V26z"/>
	<path class="st0" d="M273.9,34.5h-5.7L267,38h-1.8l5.2-13.5h1.6L277,38h-1.8L273.9,34.5z M268.8,33.1h4.6l-2.3-6.3L268.8,33.1z"/>
</g>
</svg>
