<svg width="205" height="61" viewBox="0 0 205 61" fill="none" xmlns="http://www.w3.org/2000/svg">
<path d="M68.5161 13.96C68.5161 14.5467 68.4721 14.9574 68.3841 15.192C67.3868 15.3094 66.6828 15.5147 66.2721 15.808C65.8614 16.1014 65.6561 16.5854 65.6561 17.26V39.964C65.6561 42.604 65.0401 44.6867 63.8081 46.212C62.6054 47.7374 60.7721 48.8814 58.3081 49.644C57.9561 49.0867 57.7654 48.7934 57.7361 48.764C59.7014 47.6787 60.9774 46.476 61.5641 45.156C62.1801 43.836 62.4881 42.1347 62.4881 40.052V15.896C61.5788 15.5147 60.5668 15.28 59.4521 15.192C59.4521 14.6347 59.4961 14.224 59.5841 13.96H68.5161Z" fill="white"/>
<path d="M87.9166 24.388V38.248C89.1486 38.3067 90.1019 38.336 90.7766 38.336C90.8059 38.6587 90.8206 38.908 90.8206 39.084C90.8206 39.26 90.8206 39.392 90.8206 39.48C89.1486 40.3014 87.2566 40.8294 85.1446 41.064C84.9393 39.9787 84.8073 38.4827 84.7486 36.576C82.9593 39.7734 80.7006 41.372 77.9726 41.372C76.3006 41.372 74.8926 40.7854 73.7486 39.612C72.6046 38.4387 72.0326 36.7667 72.0326 34.596V23.332C71.6513 23.3027 71.2406 23.288 70.8006 23.288C70.3899 23.288 69.9353 23.3027 69.4366 23.332C69.4366 23.0094 69.4953 22.6134 69.6126 22.144C71.7539 21.2347 73.6166 20.692 75.2006 20.516V34.332C75.2006 35.7694 75.5379 36.8987 76.2126 37.72C76.9166 38.5414 77.8259 38.952 78.9406 38.952C80.0553 38.952 81.1113 38.5707 82.1086 37.808C83.1353 37.016 84.0153 35.9014 84.7486 34.464V24.74C84.7486 23.3614 84.338 22.408 83.5166 21.88C83.5753 21.5574 83.6486 21.3374 83.7366 21.22C84.8219 20.7507 86.1126 20.516 87.6086 20.516C87.7553 20.516 87.9166 20.516 88.0926 20.516C87.9753 21.572 87.9166 22.8627 87.9166 24.388Z" fill="white"/>
<path d="M111.732 26.852V38.864C112.671 39.216 113.698 39.436 114.812 39.524C114.812 39.9347 114.783 40.3747 114.724 40.844H105.748C105.719 40.492 105.734 40.052 105.792 39.524C106.848 39.4067 107.567 39.2014 107.948 38.908C108.359 38.6147 108.564 38.1014 108.564 37.368V27.116C108.564 25.6787 108.227 24.5787 107.552 23.816C106.878 23.0534 105.939 22.672 104.736 22.672C102.184 22.672 100.278 24.1974 99.0163 27.248V38.864C99.8376 39.216 100.835 39.436 102.008 39.524C102.008 40.052 101.964 40.492 101.876 40.844H92.8563C92.7976 40.404 92.8269 39.964 92.9443 39.524C94.0296 39.4067 94.7776 39.2014 95.1883 38.908C95.6283 38.6147 95.8483 38.1014 95.8483 37.368V23.376C94.9976 23.3467 94.3376 23.332 93.8683 23.332C93.3989 23.332 93.0323 23.332 92.7683 23.332C92.7683 22.98 92.8269 22.5987 92.9443 22.188C94.8803 21.4254 96.7869 20.8827 98.6643 20.56C98.8403 21.6747 98.9576 23.112 99.0163 24.872C100.512 21.8214 102.786 20.296 105.836 20.296C107.567 20.296 108.975 20.8534 110.06 21.968C111.175 23.0827 111.732 24.7107 111.732 26.852Z" fill="white"/>
<path d="M133.161 38.16C130.873 40.3014 128.409 41.372 125.769 41.372C123.158 41.372 120.973 40.448 119.213 38.6C117.482 36.7227 116.617 34.2147 116.617 31.076C116.617 27.908 117.57 25.3267 119.477 23.332C121.383 21.308 123.833 20.296 126.825 20.296C129.171 20.296 131.151 20.868 132.765 22.012C132.765 23.5374 132.633 25.1214 132.369 26.764L131.445 26.632C131.445 25.224 130.99 24.124 130.081 23.332C129.171 22.5107 127.998 22.1 126.561 22.1C124.595 22.1 123.011 22.892 121.809 24.476C120.635 26.0307 120.049 28.128 120.049 30.768C120.049 33.408 120.621 35.4907 121.765 37.016C122.938 38.5414 124.507 39.304 126.473 39.304C128.438 39.304 130.477 38.688 132.589 37.456L133.161 38.16Z" fill="white"/>
<path d="M142.639 41.372C141.231 41.372 140.058 40.9467 139.119 40.096C138.21 39.216 137.755 37.9107 137.755 36.18V22.892C136.934 22.7747 135.98 22.716 134.895 22.716C134.895 22.628 134.895 22.5107 134.895 22.364C134.895 22.188 134.91 21.9974 134.939 21.792C135.966 21.44 136.904 21.2054 137.755 21.088L140.263 15.632L140.967 15.852V21.088C143.196 21.0294 145.25 20.9267 147.127 20.78C147.127 21.572 147.01 22.2614 146.775 22.848H140.967V35.74C140.967 37.8227 141.818 38.864 143.519 38.864C144.956 38.864 146.335 38.3214 147.655 37.236L148.183 37.808C146.628 40.184 144.78 41.372 142.639 41.372Z" fill="white"/>
<path d="M167.534 24.388V38.248C168.766 38.3067 169.719 38.336 170.394 38.336C170.423 38.6587 170.438 38.908 170.438 39.084C170.438 39.26 170.438 39.392 170.438 39.48C168.766 40.3014 166.874 40.8294 164.762 41.064C164.556 39.9787 164.424 38.4827 164.366 36.576C162.576 39.7734 160.318 41.372 157.59 41.372C155.918 41.372 154.51 40.7854 153.366 39.612C152.222 38.4387 151.65 36.7667 151.65 34.596V23.332C151.268 23.3027 150.858 23.288 150.418 23.288C150.007 23.288 149.552 23.3027 149.054 23.332C149.054 23.0094 149.112 22.6134 149.23 22.144C151.371 21.2347 153.234 20.692 154.818 20.516V34.332C154.818 35.7694 155.155 36.8987 155.83 37.72C156.534 38.5414 157.443 38.952 158.558 38.952C159.672 38.952 160.728 38.5707 161.726 37.808C162.752 37.016 163.632 35.9014 164.366 34.464V24.74C164.366 23.3614 163.955 22.408 163.134 21.88C163.192 21.5574 163.266 21.3374 163.354 21.22C164.439 20.7507 165.73 20.516 167.226 20.516C167.372 20.516 167.534 20.516 167.71 20.516C167.592 21.572 167.534 22.8627 167.534 24.388Z" fill="white"/>
<path d="M178.633 26.06V26.368C179.337 24.5494 180.393 23.0827 181.801 21.968C183.209 20.8534 184.72 20.296 186.333 20.296C186.48 20.648 186.553 21.088 186.553 21.616C186.553 22.1147 186.451 22.716 186.245 23.42C183.811 23.42 181.816 24.2267 180.261 25.84C179.381 26.808 178.839 28.0107 178.633 29.448V38.6C179.953 39.128 181.493 39.436 183.253 39.524C183.253 40.0814 183.195 40.5214 183.077 40.844H172.473C172.444 40.492 172.459 40.052 172.517 39.524C173.632 39.3774 174.395 39.1574 174.805 38.864C175.245 38.5707 175.465 38.0574 175.465 37.324V23.376C174.615 23.3467 173.955 23.332 173.485 23.332C173.016 23.332 172.649 23.332 172.385 23.332C172.385 22.98 172.444 22.5987 172.561 22.188C174.497 21.4254 176.404 20.8827 178.281 20.56C178.516 22.056 178.633 23.8894 178.633 26.06Z" fill="white"/>
<path d="M201.241 27.644C201.212 25.7374 200.757 24.3294 199.877 23.42C198.997 22.5107 197.927 22.056 196.665 22.056C195.433 22.056 194.275 22.5547 193.189 23.552C192.104 24.5494 191.4 26.0454 191.077 28.04L196.181 27.688L201.241 27.644ZM190.857 30.504C190.857 33.232 191.415 35.344 192.529 36.84C193.673 38.3067 195.331 39.04 197.501 39.04C199.672 39.04 201.813 38.336 203.925 36.928L204.321 37.72C202.18 40.1547 199.555 41.372 196.445 41.372C194.245 41.372 192.251 40.5654 190.461 38.952C189.552 38.1307 188.819 37.06 188.261 35.74C187.733 34.3907 187.469 32.88 187.469 31.208C187.469 27.776 188.467 25.1067 190.461 23.2C192.456 21.264 194.597 20.296 196.885 20.296C199.173 20.296 201.021 21.0294 202.429 22.496C203.867 23.9334 204.585 26.0014 204.585 28.7C204.409 29.0227 204.248 29.2867 204.101 29.492H190.901C190.872 29.6974 190.857 30.0347 190.857 30.504Z" fill="white"/>
<path fill-rule="evenodd" clip-rule="evenodd" d="M19.715 0.998169L19.715 39.5708H6.23293e-05L6.19546e-05 48.1425L28.2866 48.1425L28.2866 0.998169H41.1441V61H0V0.998169H19.715Z" fill="white"/>
</svg>
